<?xml version="1.0" encoding="utf-8"?>
<!-- Generator: Adobe Illustrator 23.1.0, SVG Export Plug-In . SVG Version: 6.00 Build 0)  -->
<svg version="1.1" id="Layer_1" xmlns="http://www.w3.org/2000/svg" xmlns:xlink="http://www.w3.org/1999/xlink" x="0px" y="0px"
	 viewBox="0 0 200 200" style="enable-background:new 0 0 200 200;" xml:space="preserve">
<style type="text/css">
	.st0{fill:#FFFFFF;}
	.st1{fill:#1E1E1E;}
	.st2{fill:#F7F7F7;}
	.st3{fill:#FAE80C;}
	.st4{fill:#070707;}
	.st5{fill:#3C3C3C;}
	.st6{fill:#231F20;}
</style>
<g>
	<g>
		<g>
			<g>
				<path class="st0" d="M87.4,288.29c0-23.54,0-47.07,0-70.61c0.04,0,0.09,0,0.13,0c0,23.52,0,47.04,0,70.56
					C87.49,288.26,87.45,288.27,87.4,288.29z"/>
			</g>
		</g>
		<g>
			<g>
				<path class="st0" d="M36.11,265c0.45,0.02,0.2,0.36,0.2,0.52c0.02,1.87,0.01,3.75,0.01,5.62c-0.42-0.66-0.16-1.39-0.19-2.09
					C36.09,267.7,36.11,266.35,36.11,265z"/>
			</g>
		</g>
		<g>
			<g>
				<g>
					<path class="st0" d="M38.69,248.61c-0.39-0.16-0.71-0.29-0.99-0.41C38.05,248.32,38.37,248.45,38.69,248.61z"/>
				</g>
			</g>
			<g>
				<g>
					<g>
						<g>
							<rect x="36.1" y="229.69" class="st0" width="0.17" height="41.22"/>
						</g>
					</g>
				</g>
				<g>
					<g>
						<g>
							<rect x="4.16" y="256.17" class="st0" width="47.01" height="0.17"/>
						</g>
					</g>
				</g>
				<g>
					<g>
						<g>
							<path class="st0" d="M35.19,243.38c-7.1,0-12.88,5.78-12.88,12.88c0,3.07,1.08,5.88,2.87,8.1l0.17-0.07
								c-1.79-2.19-2.87-4.99-2.87-8.03c0-7.01,5.7-12.71,12.71-12.71c6.59,0,12.02,5.04,12.65,11.47l0.17-0.07
								C47.34,248.47,41.85,243.38,35.19,243.38z"/>
						</g>
					</g>
				</g>
			</g>
			<g>
				<g>
					<path class="st0" d="M68.94,287.91c-3.72,0-7.44,0.01-11.16-0.01c-0.55,0-1.1-0.08-1.64-0.15c-0.55-0.07-0.84-0.38-0.85-0.96
						c-0.02-0.56,0.11-0.92,0.7-1.2c0.82-0.39,1.7-0.21,2.54-0.61c2.98-1.41,3.93-4.2,3.53-7.1c-0.51-3.66-1.95-7.06-3.24-10.49
						c-1.54-4.12-3.07-8.25-4.68-12.34c-1.01-2.56-2.22-5.03-3.23-7.59c-1.36-3.46-3.31-6.62-4.98-9.92
						c-0.89-1.78-2.65-2.64-4.54-1.04c-0.53,0.45-1.09,0.29-1.59-0.14c-0.58-0.51-1.47-0.91-0.98-1.93c0.92-1.91,1.9-3.79,2.83-5.69
						c1.7-3.44,3.38-6.88,5.07-10.33c0.3-0.62,0.75-1.07,1.47-0.82c0.73,0.26,1.15,0.87,0.91,1.65c-1.17,3.77-0.11,7.29,1.39,10.65
						c2.47,5.55,5.16,11.01,7.75,16.52c2.08,4.41,4.14,8.83,6.2,13.25c3,6.45,6.04,12.88,8.96,19.36c1.34,2.97,3.27,5.23,6.31,6.5
						c0.35,0.15,0.69,0.25,1.05,0.24c0.72-0.02,1.26,0.2,1.29,1.01c0.03,0.89-0.66,1.09-1.32,1.12c-1.25,0.06-2.5,0.02-3.75,0.02
						C74.31,287.91,71.62,287.91,68.94,287.91z"/>
				</g>
			</g>
			<g>
				<g>
					<path class="st0" d="M43.39,256.13c0,3.74-2.46,6.91-5.85,7.98c-0.3,0.1-0.62,0.18-0.94,0.24c-0.05,0.01-0.09,0.02-0.14,0.03
						c-0.32,0.06-0.64,0.09-0.97,0.11c-0.16,0.01-0.31,0.01-0.47,0.01c-0.02,0-0.04,0-0.06,0c-0.01,0-0.02,0-0.04,0
						c-0.54,0.15-0.85,0.67-1.08,1.33c-1.24,3.57-2.49,7.13-3.75,10.69c-0.5,1.42-0.98,2.85-1.04,4.37c-0.1,2.65,1.3,4.44,3.88,4.98
						c0.32,0.07,0.64,0.16,0.97,0.22c0.43,0.07,0.94,0.06,0.97,0.67c0.04,0.63-0.45,0.89-0.92,1.1c-0.22,0.1-0.51,0.06-0.76,0.06
						c-5.52,0-11.04,0-16.57,0.01c-0.5,0-0.92-0.17-1.37-0.33c-0.59-0.22-0.55-0.7-0.6-1.17c-0.05-0.54,0.3-0.71,0.72-0.8
						c1.43-0.32,2.8-0.75,4.01-1.65c1.65-1.21,2.44-2.96,3.21-4.74c1.16-2.68,2.32-5.36,3.44-8.06c0.95-2.3,2.12-4.5,2.81-6.91
						c0.26-0.89,0.29-1.67,0.04-2.42c0,0,0,0,0-0.01c-0.02-0.02-0.04-0.04-0.06-0.06c-1.36-1.49-2.19-3.47-2.19-5.64
						c0-3.76,2.49-6.95,5.91-8c0.07-0.02,0.15-0.04,0.22-0.07c0.71-0.2,1.46-0.3,2.23-0.3c0.28,0,0.56,0.01,0.84,0.04
						c0.44,0.04,0.87,0.12,1.28,0.23c0.16,0.04,0.31,0.09,0.46,0.14c0.03,0.01,0.07,0.02,0.1,0.03c0.27,0.12,0.6,0.25,0.99,0.41
						c0.04,0.02,0.07,0.04,0.11,0.06c1.5,0.76,2.73,1.95,3.54,3.42c0.66,1.18,1.03,2.54,1.04,3.99v0.01
						C43.39,256.1,43.39,256.11,43.39,256.13z"/>
				</g>
			</g>
		</g>
		<g>
			<g>
				<path class="st0" d="M93.49,255.71v24.18h-1.04v-24.18H93.49z"/>
			</g>
			<g>
				<path class="st0" d="M99.22,261.38v18.52h-1.04v-18.52H99.22z M100.26,263.42v-1.17c1.45-0.79,3.18-1.21,4.8-1.21
					c3.07,0,6.01,1.55,7.15,4.63c0.21,0.55,0.41,1.14,0.41,2.42v11.82h-1.04v-11.82c0-3.94-3.42-6.01-6.53-6.01
					C103.4,262.07,101.64,262.55,100.26,263.42z"/>
			</g>
			<g>
				<path class="st0" d="M118.01,273.4c0,3.77,2.31,5.49,5.29,5.49c0.21,0,0.48,0,0.79-0.03l0.14,1.04
					c-0.31,0.03-0.66,0.03-0.93,0.03c-3.52,0-6.32-2.07-6.32-6.53v-10.99h-1.55v-1.04h1.55v-6.01h1.04V273.4z M123.47,262.41h-4.42
					v-1.04h4.42V262.41z"/>
			</g>
			<g>
				<path class="st0" d="M140.64,268.7c0-2.9-2.28-6.63-6.63-6.63c-2.94,0-7.19,2.31-7.19,8.5c0,4.11,3.49,8.43,10.74,8.43
					c0.66,0,1.38-0.07,2.11-0.14v1.04c-0.76,0.07-1.52,0.14-2.21,0.14c-7.67,0-11.68-4.66-11.68-9.47c0-7.19,5.08-9.54,8.22-9.54
					c4.91,0,7.74,3.8,7.74,8.71H127.9c0-0.35,0.03-0.69,0.1-1.04H140.64z"/>
			</g>
			<g>
				<path class="st0" d="M146.79,261.38v18.52h-1.04v-18.52H146.79z M152.63,262.07c-1.66,0-3.42,0.48-4.8,1.35v-1.17
					c1.45-0.79,3.18-1.21,4.8-1.21V262.07z"/>
			</g>
			<g>
				<path class="st0" d="M155.91,255.71h1.73v1.73h-1.73V255.71z M157.3,261.38v18.52h-1.04v-18.52H157.3z"/>
			</g>
			<g>
				<path class="st0" d="M170.53,279.2v1c-5.04-0.28-9.09-4.46-9.09-9.57s4.04-9.29,9.09-9.57v1.04c-4.49,0.28-8.05,3.97-8.05,8.53
					S166.04,278.93,170.53,279.2z M171.56,280.21v-1c4.49-0.28,8.05-4.01,8.05-8.57s-3.56-8.26-8.05-8.53v-1.04
					c5.04,0.28,9.09,4.46,9.09,9.57S176.61,279.93,171.56,280.21z"/>
			</g>
			<g>
				<path class="st0" d="M185.69,261.38v18.52h-1.04v-18.52H185.69z M191.53,262.07c-1.66,0-3.42,0.48-4.8,1.35v-1.17
					c1.45-0.79,3.18-1.21,4.8-1.21V262.07z"/>
			</g>
		</g>
		<g>
			<g>
				<path class="st0" d="M102.33,222.01l-9.16,24.28l-1.14-0.41l9.65-25.59L102.33,222.01z M102.33,218.54l0.65-1.76l10.95,29.1
					l-1.14,0.41l-2.98-7.93H97.47l0.45-1.23h11.4L102.33,218.54z"/>
			</g>
			<g>
				<path class="st0" d="M119.87,224.18v21.91h-1.23v-21.91H119.87z M126.78,224.99c-1.96,0-4.05,0.57-5.68,1.59v-1.39
					c1.72-0.94,3.76-1.43,5.68-1.43V224.99z"/>
			</g>
			<g>
				<path class="st0" d="M144.68,246.25c-0.9,0.08-1.76,0.12-2.62,0.12c-9.24,0-13.86-5.6-13.86-11.24
					c0-5.64,4.62-11.28,13.86-11.28c0.86,0,1.72,0.04,2.62,0.12l-0.08,1.23c-0.9-0.08-1.76-0.12-2.53-0.12
					c-8.42,0-12.63,5.07-12.63,10.06c0,4.99,4.21,10.01,12.63,10.01c0.78,0,1.63-0.04,2.53-0.12L144.68,246.25z"/>
			</g>
			<g>
				<path class="st0" d="M158.29,245.27v1.19c-5.97-0.33-10.75-5.27-10.75-11.32c0-6.05,4.78-11,10.75-11.32v1.23
					c-5.31,0.33-9.52,4.7-9.52,10.1C148.76,240.53,152.97,244.94,158.29,245.27z M159.51,246.46v-1.19
					c5.31-0.33,9.52-4.74,9.52-10.14c0-5.4-4.21-9.77-9.52-10.1v-1.23c5.97,0.33,10.75,5.27,10.75,11.32
					C170.26,241.18,165.48,246.13,159.51,246.46z"/>
			</g>
			<g>
				<path class="st0" d="M176.23,224.18v21.91H175v-21.91H176.23z M177.45,226.59v-1.39c1.72-0.94,3.76-1.43,5.68-1.43
					c3.64,0,7.11,1.84,8.46,5.48c0.25,0.65,0.49,1.35,0.49,2.86v13.98h-1.23v-13.98c0-4.66-4.05-7.11-7.73-7.11
					C181.17,224.99,179.09,225.57,177.45,226.59z"/>
			</g>
		</g>
	</g>
	<g>
		<path class="st0" d="M11.34,296.44v9.22h-1.2v-9.22H11.34z"/>
		<path class="st0" d="M19.06,299.08c0.55,0.53,0.82,1.3,0.82,2.31v4.27h-1.19v-4.1c0-0.72-0.18-1.28-0.54-1.66
			c-0.36-0.38-0.85-0.58-1.48-0.58c-0.63,0-1.14,0.2-1.51,0.59c-0.38,0.4-0.56,0.97-0.56,1.73v4.01h-1.2v-7.25h1.2v1.03
			c0.24-0.37,0.56-0.66,0.97-0.86c0.41-0.2,0.86-0.3,1.36-0.3C17.8,298.28,18.51,298.54,19.06,299.08z"/>
		<path class="st0" d="M23.32,299.4v4.27c0,0.35,0.08,0.6,0.23,0.75s0.41,0.22,0.78,0.22h0.89v1.02h-1.08
			c-0.67,0-1.17-0.15-1.51-0.46s-0.5-0.82-0.5-1.52v-4.27h-0.94v-0.99h0.94v-1.82h1.2v1.82h1.89v0.99H23.32z"/>
		<path class="st0" d="M33.23,302.48h-5.79c0.04,0.71,0.29,1.27,0.73,1.67s0.99,0.6,1.62,0.6c0.52,0,0.95-0.12,1.3-0.36
			s0.59-0.57,0.73-0.97h1.3c-0.19,0.7-0.58,1.26-1.16,1.7c-0.58,0.44-1.3,0.65-2.17,0.65c-0.69,0-1.3-0.15-1.84-0.46
			c-0.54-0.31-0.97-0.75-1.28-1.32c-0.31-0.57-0.46-1.23-0.46-1.98c0-0.75,0.15-1.41,0.45-1.97c0.3-0.56,0.72-1,1.26-1.3
			c0.54-0.3,1.17-0.46,1.87-0.46c0.69,0,1.3,0.15,1.82,0.45c0.53,0.3,0.94,0.71,1.22,1.24s0.43,1.12,0.43,1.78
			C33.27,301.98,33.26,302.23,33.23,302.48z M31.73,300.32c-0.2-0.33-0.48-0.58-0.83-0.75s-0.73-0.26-1.16-0.26
			c-0.61,0-1.13,0.19-1.55,0.58s-0.67,0.93-0.73,1.61h4.58C32.03,301.05,31.93,300.65,31.73,300.32z"/>
		<path class="st0" d="M36.97,298.62c0.39-0.23,0.87-0.34,1.43-0.34v1.24h-0.32c-1.35,0-2.02,0.73-2.02,2.2v3.94h-1.2v-7.25h1.2
			v1.18C36.27,299.17,36.58,298.85,36.97,298.62z"/>
		<path class="st0" d="M39.83,297c-0.16-0.16-0.24-0.35-0.24-0.58s0.08-0.42,0.24-0.58c0.16-0.16,0.35-0.24,0.58-0.24
			c0.22,0,0.41,0.08,0.56,0.24c0.15,0.16,0.23,0.35,0.23,0.58s-0.08,0.42-0.23,0.58c-0.15,0.16-0.34,0.24-0.56,0.24
			C40.18,297.23,39.99,297.15,39.83,297z M41,298.41v7.25h-1.2v-7.25H41z"/>
		<path class="st0" d="M44.36,305.31c-0.55-0.31-0.98-0.75-1.3-1.32c-0.31-0.57-0.47-1.23-0.47-1.98c0-0.74,0.16-1.39,0.48-1.96
			c0.32-0.57,0.76-1,1.32-1.31c0.56-0.3,1.18-0.46,1.86-0.46c0.69,0,1.31,0.15,1.86,0.46c0.56,0.3,0.99,0.74,1.32,1.3
			c0.32,0.56,0.48,1.22,0.48,1.97c0,0.75-0.17,1.41-0.5,1.98c-0.33,0.57-0.78,1.01-1.34,1.32c-0.56,0.31-1.19,0.46-1.88,0.46
			C45.53,305.78,44.91,305.62,44.36,305.31z M47.42,304.41c0.38-0.2,0.69-0.51,0.92-0.91c0.23-0.41,0.35-0.9,0.35-1.48
			s-0.11-1.08-0.34-1.48c-0.23-0.41-0.53-0.71-0.9-0.91c-0.37-0.2-0.77-0.3-1.2-0.3c-0.44,0-0.84,0.1-1.21,0.3s-0.66,0.5-0.88,0.91
			c-0.22,0.41-0.33,0.9-0.33,1.48c0,0.59,0.11,1.09,0.32,1.49c0.22,0.41,0.5,0.71,0.87,0.91c0.36,0.2,0.76,0.3,1.19,0.3
			C46.64,304.72,47.04,304.62,47.42,304.41z"/>
		<path class="st0" d="M53.62,298.62c0.39-0.23,0.87-0.34,1.43-0.34v1.24h-0.32c-1.35,0-2.02,0.73-2.02,2.2v3.94h-1.2v-7.25h1.2
			v1.18C52.92,299.17,53.22,298.85,53.62,298.62z"/>
		<path class="st0" d="M67.05,305.66l-1.2-1.22c-0.45,0.47-0.93,0.81-1.44,1.04c-0.51,0.22-1.09,0.34-1.73,0.34
			c-0.63,0-1.2-0.11-1.69-0.34c-0.49-0.23-0.87-0.55-1.14-0.98c-0.27-0.42-0.4-0.92-0.4-1.48c0-0.64,0.18-1.21,0.55-1.7
			s0.91-0.88,1.62-1.16c-0.28-0.33-0.49-0.64-0.61-0.93c-0.12-0.28-0.19-0.59-0.19-0.93c0-0.39,0.1-0.74,0.3-1.05
			c0.2-0.31,0.48-0.56,0.85-0.73c0.37-0.18,0.8-0.26,1.28-0.26c0.48,0,0.89,0.09,1.24,0.28c0.35,0.18,0.62,0.44,0.79,0.77
			c0.18,0.33,0.26,0.7,0.24,1.1h-1.2c0.01-0.36-0.09-0.65-0.3-0.85c-0.21-0.21-0.49-0.31-0.82-0.31c-0.35,0-0.64,0.1-0.85,0.3
			c-0.22,0.2-0.32,0.45-0.32,0.76c0,0.26,0.07,0.52,0.22,0.77c0.15,0.25,0.39,0.55,0.73,0.91l2.75,2.76l0.24-0.37l0.9-1.51h1.3
			l-1.08,1.88c-0.15,0.26-0.33,0.54-0.53,0.83l2.08,2.08H67.05z M63.96,304.51c0.38-0.19,0.75-0.47,1.09-0.86l-2.71-2.72
			c-1.13,0.43-1.69,1.12-1.69,2.05c0,0.52,0.19,0.95,0.56,1.3c0.37,0.34,0.86,0.52,1.46,0.52
			C63.14,304.78,63.57,304.69,63.96,304.51z"/>
		<path class="st0" d="M74.48,297.42v3.08h3.36v0.99h-3.36v3.17h3.76v0.99h-4.96v-9.23h4.96v0.99H74.48z"/>
		<path class="st0" d="M83.84,305.66l-1.72-2.7l-1.65,2.7h-1.26l2.34-3.6l-2.34-3.65h1.36l1.72,2.68l1.64-2.68h1.26l-2.33,3.58
			l2.34,3.66H83.84z"/>
		<path class="st0" d="M87.86,299.4v4.27c0,0.35,0.08,0.6,0.23,0.75s0.41,0.22,0.78,0.22h0.89v1.02h-1.08
			c-0.67,0-1.17-0.15-1.51-0.46s-0.5-0.82-0.5-1.52v-4.27h-0.94v-0.99h0.94v-1.82h1.2v1.82h1.89v0.99H87.86z"/>
		<path class="st0" d="M97.78,302.48h-5.79c0.04,0.71,0.29,1.27,0.73,1.67s0.99,0.6,1.62,0.6c0.52,0,0.95-0.12,1.3-0.36
			s0.59-0.57,0.73-0.97h1.3c-0.19,0.7-0.58,1.26-1.16,1.7c-0.58,0.44-1.3,0.65-2.17,0.65c-0.69,0-1.3-0.15-1.84-0.46
			c-0.54-0.31-0.97-0.75-1.28-1.32c-0.31-0.57-0.46-1.23-0.46-1.98c0-0.75,0.15-1.41,0.45-1.97c0.3-0.56,0.72-1,1.26-1.3
			c0.54-0.3,1.17-0.46,1.87-0.46c0.69,0,1.3,0.15,1.82,0.45s0.94,0.71,1.22,1.24s0.43,1.12,0.43,1.78
			C97.82,301.98,97.8,302.23,97.78,302.48z M96.27,300.32c-0.2-0.33-0.48-0.58-0.83-0.75s-0.73-0.26-1.16-0.26
			c-0.61,0-1.13,0.19-1.55,0.58s-0.67,0.93-0.73,1.61h4.58C96.57,301.05,96.47,300.65,96.27,300.32z"/>
		<path class="st0" d="M101.51,298.62c0.39-0.23,0.87-0.34,1.43-0.34v1.24h-0.32c-1.35,0-2.02,0.73-2.02,2.2v3.94h-1.2v-7.25h1.2
			v1.18C100.82,299.17,101.12,298.85,101.51,298.62z"/>
		<path class="st0" d="M104.38,297c-0.16-0.16-0.24-0.35-0.24-0.58s0.08-0.42,0.24-0.58c0.16-0.16,0.35-0.24,0.58-0.24
			c0.22,0,0.41,0.08,0.56,0.24c0.15,0.16,0.23,0.35,0.23,0.58s-0.08,0.42-0.23,0.58c-0.15,0.16-0.34,0.24-0.56,0.24
			C104.73,297.23,104.54,297.15,104.38,297z M105.54,298.41v7.25h-1.2v-7.25H105.54z"/>
		<path class="st0" d="M108.91,305.31c-0.55-0.31-0.98-0.75-1.3-1.32c-0.31-0.57-0.47-1.23-0.47-1.98c0-0.74,0.16-1.39,0.48-1.96
			c0.32-0.57,0.76-1,1.32-1.31c0.56-0.3,1.18-0.46,1.86-0.46s1.31,0.15,1.86,0.46c0.56,0.3,0.99,0.74,1.32,1.3
			c0.32,0.56,0.48,1.22,0.48,1.97c0,0.75-0.17,1.41-0.5,1.98c-0.33,0.57-0.78,1.01-1.34,1.32c-0.56,0.31-1.19,0.46-1.88,0.46
			C110.07,305.78,109.46,305.62,108.91,305.31z M111.97,304.41c0.38-0.2,0.69-0.51,0.92-0.91s0.35-0.9,0.35-1.48
			s-0.12-1.08-0.34-1.48c-0.23-0.41-0.53-0.71-0.9-0.91s-0.77-0.3-1.2-0.3c-0.44,0-0.84,0.1-1.21,0.3c-0.37,0.2-0.66,0.5-0.88,0.91
			c-0.22,0.41-0.33,0.9-0.33,1.48c0,0.59,0.11,1.09,0.32,1.49c0.22,0.41,0.5,0.71,0.87,0.91s0.76,0.3,1.19,0.3
			S111.59,304.62,111.97,304.41z"/>
		<path class="st0" d="M118.16,298.62c0.39-0.23,0.87-0.34,1.44-0.34v1.24h-0.32c-1.35,0-2.02,0.73-2.02,2.2v3.94h-1.2v-7.25h1.2
			v1.18C117.47,299.17,117.77,298.85,118.16,298.62z"/>
		<path class="st0" d="M124.67,298.61c0.41-0.72,0.96-1.28,1.66-1.69c0.7-0.41,1.48-0.61,2.33-0.61c1,0,1.88,0.24,2.63,0.73
			c0.75,0.48,1.3,1.17,1.64,2.06h-1.44c-0.26-0.56-0.62-0.98-1.1-1.28s-1.06-0.45-1.73-0.45c-0.64,0-1.22,0.15-1.73,0.45
			c-0.51,0.3-0.91,0.72-1.2,1.28c-0.29,0.55-0.44,1.2-0.44,1.94c0,0.73,0.15,1.37,0.44,1.92c0.29,0.55,0.69,0.98,1.2,1.28
			c0.51,0.3,1.09,0.45,1.73,0.45c0.67,0,1.25-0.15,1.73-0.44s0.85-0.72,1.1-1.28h1.44c-0.34,0.88-0.89,1.56-1.64,2.04
			s-1.63,0.72-2.63,0.72c-0.86,0-1.63-0.2-2.33-0.6c-0.7-0.4-1.25-0.96-1.66-1.67s-0.61-1.52-0.61-2.42S124.27,299.33,124.67,298.61
			z"/>
		<path class="st0" d="M136.04,305.31c-0.55-0.31-0.98-0.75-1.3-1.32c-0.31-0.57-0.47-1.23-0.47-1.98c0-0.74,0.16-1.39,0.48-1.96
			c0.32-0.57,0.76-1,1.32-1.31c0.56-0.3,1.18-0.46,1.86-0.46s1.31,0.15,1.86,0.46c0.56,0.3,0.99,0.74,1.32,1.3
			c0.32,0.56,0.48,1.22,0.48,1.97c0,0.75-0.17,1.41-0.5,1.98c-0.33,0.57-0.78,1.01-1.34,1.32c-0.56,0.31-1.19,0.46-1.88,0.46
			C137.21,305.78,136.59,305.62,136.04,305.31z M139.1,304.41c0.38-0.2,0.69-0.51,0.92-0.91s0.35-0.9,0.35-1.48
			s-0.12-1.08-0.34-1.48c-0.23-0.41-0.53-0.71-0.9-0.91s-0.77-0.3-1.2-0.3c-0.44,0-0.84,0.1-1.21,0.3c-0.37,0.2-0.66,0.5-0.88,0.91
			c-0.22,0.41-0.33,0.9-0.33,1.48c0,0.59,0.11,1.09,0.32,1.49c0.22,0.41,0.5,0.71,0.87,0.91s0.76,0.3,1.19,0.3
			S138.72,304.62,139.1,304.41z"/>
		<path class="st0" d="M148.86,299.08c0.55,0.53,0.82,1.3,0.82,2.31v4.27h-1.19v-4.1c0-0.72-0.18-1.28-0.54-1.66
			c-0.36-0.38-0.85-0.58-1.48-0.58c-0.63,0-1.14,0.2-1.51,0.59c-0.37,0.4-0.56,0.97-0.56,1.73v4.01h-1.2v-7.25h1.2v1.03
			c0.24-0.37,0.56-0.66,0.97-0.86c0.41-0.2,0.86-0.3,1.36-0.3C147.6,298.28,148.31,298.54,148.86,299.08z"/>
		<path class="st0" d="M152.72,305.49c-0.44-0.19-0.79-0.45-1.04-0.79c-0.26-0.34-0.4-0.73-0.42-1.17h1.24
			c0.04,0.36,0.21,0.66,0.51,0.89c0.3,0.23,0.7,0.34,1.2,0.34c0.46,0,0.82-0.1,1.08-0.3c0.26-0.2,0.4-0.46,0.4-0.77
			c0-0.32-0.14-0.55-0.42-0.71s-0.72-0.31-1.31-0.46c-0.54-0.14-0.98-0.28-1.32-0.43c-0.34-0.15-0.63-0.36-0.87-0.65
			c-0.24-0.29-0.36-0.66-0.36-1.13c0-0.37,0.11-0.71,0.33-1.02c0.22-0.31,0.53-0.55,0.94-0.73s0.87-0.27,1.39-0.27
			c0.8,0,1.45,0.2,1.94,0.61c0.49,0.41,0.76,0.96,0.79,1.67h-1.2c-0.03-0.38-0.18-0.68-0.46-0.91c-0.28-0.23-0.65-0.34-1.12-0.34
			c-0.43,0-0.78,0.09-1.03,0.28c-0.26,0.18-0.38,0.43-0.38,0.73c0,0.24,0.08,0.43,0.23,0.59c0.15,0.15,0.35,0.28,0.58,0.37
			s0.56,0.2,0.97,0.31c0.52,0.14,0.94,0.28,1.27,0.42s0.61,0.34,0.84,0.62c0.23,0.27,0.36,0.63,0.36,1.07c0,0.4-0.11,0.75-0.33,1.07
			c-0.22,0.32-0.53,0.57-0.93,0.75c-0.4,0.18-0.86,0.27-1.38,0.27C153.66,305.78,153.16,305.68,152.72,305.49z"/>
		<path class="st0" d="M164.98,298.41v7.25h-1.2v-1.07c-0.23,0.37-0.55,0.66-0.96,0.87c-0.41,0.21-0.86,0.31-1.36,0.31
			c-0.56,0-1.07-0.12-1.52-0.35c-0.45-0.23-0.8-0.58-1.06-1.05c-0.26-0.47-0.39-1.04-0.39-1.71v-4.25h1.19v4.09
			c0,0.71,0.18,1.26,0.54,1.65c0.36,0.38,0.85,0.58,1.48,0.58c0.64,0,1.15-0.2,1.52-0.6s0.55-0.97,0.55-1.73v-3.98H164.98z"/>
		<path class="st0" d="M168.22,295.87v9.79h-1.2v-9.79H168.22z"/>
		<path class="st0" d="M171.74,299.4v4.27c0,0.35,0.07,0.6,0.22,0.75c0.15,0.15,0.41,0.22,0.78,0.22h0.89v1.02h-1.08
			c-0.67,0-1.17-0.15-1.51-0.46s-0.5-0.82-0.5-1.52v-4.27h-0.94v-0.99h0.94v-1.82h1.2v1.82h1.89v0.99H171.74z"/>
		<path class="st0" d="M175.08,300.06c0.3-0.56,0.71-0.99,1.24-1.3s1.11-0.46,1.75-0.46c0.63,0,1.19,0.14,1.65,0.41
			c0.47,0.27,0.82,0.62,1.04,1.03v-1.32h1.22v7.25h-1.22v-1.35c-0.24,0.42-0.59,0.77-1.06,1.05c-0.47,0.28-1.02,0.42-1.65,0.42
			c-0.64,0-1.22-0.16-1.75-0.48s-0.93-0.76-1.23-1.33c-0.3-0.57-0.45-1.23-0.45-1.96C174.63,301.27,174.78,300.62,175.08,300.06z
			 M180.44,300.59c-0.22-0.41-0.52-0.72-0.89-0.93c-0.38-0.22-0.79-0.32-1.24-0.32c-0.45,0-0.86,0.11-1.23,0.32
			c-0.37,0.21-0.67,0.52-0.89,0.93c-0.22,0.41-0.33,0.88-0.33,1.43c0,0.55,0.11,1.04,0.33,1.45c0.22,0.41,0.52,0.72,0.89,0.94
			c0.37,0.22,0.78,0.32,1.23,0.32c0.45,0,0.86-0.11,1.24-0.32c0.37-0.22,0.67-0.53,0.89-0.94c0.22-0.41,0.33-0.89,0.33-1.43
			C180.77,301.47,180.66,301,180.44,300.59z"/>
		<path class="st0" d="M189.7,299.08c0.55,0.53,0.82,1.3,0.82,2.31v4.27h-1.19v-4.1c0-0.72-0.18-1.28-0.54-1.66
			c-0.36-0.38-0.85-0.58-1.48-0.58c-0.63,0-1.14,0.2-1.51,0.59c-0.37,0.4-0.56,0.97-0.56,1.73v4.01h-1.2v-7.25h1.2v1.03
			c0.24-0.37,0.56-0.66,0.97-0.86c0.41-0.2,0.86-0.3,1.36-0.3C188.43,298.28,189.15,298.54,189.7,299.08z"/>
		<path class="st0" d="M193.95,299.4v4.27c0,0.35,0.07,0.6,0.22,0.75c0.15,0.15,0.41,0.22,0.78,0.22h0.89v1.02h-1.08
			c-0.67,0-1.17-0.15-1.51-0.46s-0.5-0.82-0.5-1.52v-4.27h-0.94v-0.99h0.94v-1.82h1.2v1.82h1.89v0.99H193.95z"/>
	</g>
</g>
<g>
	<g>
		<g>
			<g>
				<path class="st1" d="M87.4-47.71c0-23.54,0-47.07,0-70.61c0.04,0,0.09,0,0.13,0c0,23.52,0,47.04,0,70.56
					C87.49-47.74,87.45-47.73,87.4-47.71z"/>
			</g>
		</g>
		<g>
			<g>
				<path class="st1" d="M36.11-71c0.45,0.02,0.2,0.36,0.2,0.52c0.02,1.87,0.01,3.75,0.01,5.62c-0.42-0.66-0.16-1.39-0.19-2.09
					C36.09-68.3,36.11-69.65,36.11-71z"/>
			</g>
		</g>
		<g>
			<g>
				<g>
					<path class="st1" d="M38.69-87.39c-0.39-0.16-0.71-0.29-0.99-0.41C38.05-87.68,38.37-87.55,38.69-87.39z"/>
				</g>
			</g>
			<g>
				<g>
					<g>
						<g>
							<rect x="36.1" y="-106.31" class="st1" width="0.17" height="41.22"/>
						</g>
					</g>
				</g>
				<g>
					<g>
						<g>
							<rect x="4.16" y="-79.83" class="st1" width="47.01" height="0.17"/>
						</g>
					</g>
				</g>
				<g>
					<g>
						<g>
							<path class="st1" d="M35.19-92.62c-7.1,0-12.88,5.78-12.88,12.88c0,3.07,1.08,5.88,2.87,8.1l0.17-0.07
								c-1.79-2.19-2.87-4.99-2.87-8.03c0-7.01,5.7-12.71,12.71-12.71c6.59,0,12.02,5.04,12.65,11.47L48-81.05
								C47.34-87.53,41.85-92.62,35.19-92.62z"/>
						</g>
					</g>
				</g>
			</g>
			<g>
				<g>
					<path class="st1" d="M68.94-48.09c-3.72,0-7.44,0.01-11.16-0.01c-0.55,0-1.1-0.08-1.64-0.15c-0.55-0.07-0.84-0.38-0.85-0.96
						c-0.02-0.56,0.11-0.92,0.7-1.2c0.82-0.39,1.7-0.21,2.54-0.61c2.98-1.41,3.93-4.2,3.53-7.1c-0.51-3.66-1.95-7.06-3.24-10.49
						c-1.54-4.12-3.07-8.25-4.68-12.34c-1.01-2.56-2.22-5.03-3.23-7.59c-1.36-3.46-3.31-6.62-4.98-9.92
						c-0.89-1.78-2.65-2.64-4.54-1.04c-0.53,0.45-1.09,0.29-1.59-0.14c-0.58-0.51-1.47-0.91-0.98-1.93c0.92-1.91,1.9-3.79,2.83-5.69
						c1.7-3.44,3.38-6.88,5.07-10.33c0.3-0.62,0.75-1.07,1.47-0.82c0.73,0.26,1.15,0.87,0.91,1.65c-1.17,3.77-0.11,7.29,1.39,10.65
						c2.47,5.55,5.16,11.01,7.75,16.52c2.08,4.41,4.14,8.83,6.2,13.25c3,6.45,6.04,12.88,8.96,19.36c1.34,2.97,3.27,5.23,6.31,6.5
						c0.35,0.15,0.69,0.25,1.05,0.24c0.72-0.02,1.26,0.2,1.29,1.01c0.03,0.89-0.66,1.09-1.32,1.12c-1.25,0.06-2.5,0.02-3.75,0.02
						C74.31-48.09,71.62-48.09,68.94-48.09z"/>
				</g>
			</g>
			<g>
				<g>
					<path class="st1" d="M43.39-79.87c0,3.74-2.46,6.91-5.85,7.98c-0.3,0.1-0.62,0.18-0.94,0.24c-0.05,0.01-0.09,0.02-0.14,0.03
						c-0.32,0.06-0.64,0.09-0.97,0.11c-0.16,0.01-0.31,0.01-0.47,0.01c-0.02,0-0.04,0-0.06,0c-0.01,0-0.02,0-0.04,0
						c-0.54,0.15-0.85,0.67-1.08,1.33c-1.24,3.57-2.49,7.13-3.75,10.69c-0.5,1.42-0.98,2.85-1.04,4.37c-0.1,2.65,1.3,4.44,3.88,4.98
						c0.32,0.07,0.64,0.16,0.97,0.22c0.43,0.07,0.94,0.06,0.97,0.67c0.04,0.63-0.45,0.89-0.92,1.1c-0.22,0.1-0.51,0.06-0.76,0.06
						c-5.52,0-11.04,0-16.57,0.01c-0.5,0-0.92-0.17-1.37-0.33c-0.59-0.22-0.55-0.7-0.6-1.17c-0.05-0.54,0.3-0.71,0.72-0.8
						c1.43-0.32,2.8-0.75,4.01-1.65c1.65-1.21,2.44-2.96,3.21-4.74c1.16-2.68,2.32-5.36,3.44-8.06c0.95-2.3,2.12-4.5,2.81-6.91
						c0.26-0.89,0.29-1.67,0.04-2.42c0,0,0,0,0-0.01c-0.02-0.02-0.04-0.04-0.06-0.06c-1.36-1.49-2.19-3.47-2.19-5.64
						c0-3.76,2.49-6.95,5.91-8c0.07-0.02,0.15-0.04,0.22-0.07c0.71-0.2,1.46-0.3,2.23-0.3c0.28,0,0.56,0.01,0.84,0.04
						c0.44,0.04,0.87,0.12,1.28,0.23c0.16,0.04,0.31,0.09,0.46,0.14c0.03,0.01,0.07,0.02,0.1,0.03c0.27,0.12,0.6,0.25,0.99,0.41
						c0.04,0.02,0.07,0.04,0.11,0.06c1.5,0.76,2.73,1.95,3.54,3.42c0.66,1.18,1.03,2.54,1.04,3.99v0.01
						C43.39-79.9,43.39-79.89,43.39-79.87z"/>
				</g>
			</g>
		</g>
		<g>
			<g>
				<path class="st1" d="M93.49-80.29v24.18h-1.04v-24.18H93.49z"/>
			</g>
			<g>
				<path class="st1" d="M99.22-74.62v18.52h-1.04v-18.52H99.22z M100.26-72.58v-1.17c1.45-0.79,3.18-1.21,4.8-1.21
					c3.07,0,6.01,1.55,7.15,4.63c0.21,0.55,0.41,1.14,0.41,2.42v11.82h-1.04v-11.82c0-3.94-3.42-6.01-6.53-6.01
					C103.4-73.93,101.64-73.45,100.26-72.58z"/>
			</g>
			<g>
				<path class="st1" d="M118.01-62.6c0,3.77,2.31,5.49,5.29,5.49c0.21,0,0.48,0,0.79-0.03l0.14,1.04
					c-0.31,0.03-0.66,0.03-0.93,0.03c-3.52,0-6.32-2.07-6.32-6.53v-10.99h-1.55v-1.04h1.55v-6.01h1.04V-62.6z M123.47-73.59h-4.42
					v-1.04h4.42V-73.59z"/>
			</g>
			<g>
				<path class="st1" d="M140.64-67.3c0-2.9-2.28-6.63-6.63-6.63c-2.94,0-7.19,2.31-7.19,8.5c0,4.11,3.49,8.43,10.74,8.43
					c0.66,0,1.38-0.07,2.11-0.14v1.04c-0.76,0.07-1.52,0.14-2.21,0.14c-7.67,0-11.68-4.66-11.68-9.47c0-7.19,5.08-9.54,8.22-9.54
					c4.91,0,7.74,3.8,7.74,8.71H127.9c0-0.35,0.03-0.69,0.1-1.04H140.64z"/>
			</g>
			<g>
				<path class="st1" d="M146.79-74.62v18.52h-1.04v-18.52H146.79z M152.63-73.93c-1.66,0-3.42,0.48-4.8,1.35v-1.17
					c1.45-0.79,3.18-1.21,4.8-1.21V-73.93z"/>
			</g>
			<g>
				<path class="st1" d="M155.91-80.29h1.73v1.73h-1.73V-80.29z M157.3-74.62v18.52h-1.04v-18.52H157.3z"/>
			</g>
			<g>
				<path class="st1" d="M170.53-56.8v1c-5.04-0.28-9.09-4.46-9.09-9.57c0-5.11,4.04-9.29,9.09-9.57v1.04
					c-4.49,0.28-8.05,3.97-8.05,8.53S166.04-57.07,170.53-56.8z M171.56-55.79v-1c4.49-0.28,8.05-4.01,8.05-8.57
					s-3.56-8.26-8.05-8.53v-1.04c5.04,0.28,9.09,4.46,9.09,9.57C180.65-60.25,176.61-56.07,171.56-55.79z"/>
			</g>
			<g>
				<path class="st1" d="M185.69-74.62v18.52h-1.04v-18.52H185.69z M191.53-73.93c-1.66,0-3.42,0.48-4.8,1.35v-1.17
					c1.45-0.79,3.18-1.21,4.8-1.21V-73.93z"/>
			</g>
		</g>
		<g>
			<g>
				<path class="st1" d="M102.33-113.99l-9.16,24.28l-1.14-0.41l9.65-25.59L102.33-113.99z M102.33-117.46l0.65-1.76l10.95,29.1
					l-1.14,0.41l-2.98-7.93H97.47l0.45-1.23h11.4L102.33-117.46z"/>
			</g>
			<g>
				<path class="st1" d="M119.87-111.82v21.91h-1.23v-21.91H119.87z M126.78-111.01c-1.96,0-4.05,0.57-5.68,1.59v-1.39
					c1.72-0.94,3.76-1.43,5.68-1.43V-111.01z"/>
			</g>
			<g>
				<path class="st1" d="M144.68-89.75c-0.9,0.08-1.76,0.12-2.62,0.12c-9.24,0-13.86-5.6-13.86-11.24s4.62-11.28,13.86-11.28
					c0.86,0,1.72,0.04,2.62,0.12l-0.08,1.23c-0.9-0.08-1.76-0.12-2.53-0.12c-8.42,0-12.63,5.07-12.63,10.06
					c0,4.99,4.21,10.01,12.63,10.01c0.78,0,1.63-0.04,2.53-0.12L144.68-89.75z"/>
			</g>
			<g>
				<path class="st1" d="M158.29-90.73v1.19c-5.97-0.33-10.75-5.27-10.75-11.32s4.78-11,10.75-11.32v1.23
					c-5.31,0.33-9.52,4.7-9.52,10.1S152.97-91.06,158.29-90.73z M159.51-89.54v-1.19c5.31-0.33,9.52-4.74,9.52-10.14
					s-4.21-9.77-9.52-10.1v-1.23c5.97,0.33,10.75,5.27,10.75,11.32S165.48-89.87,159.51-89.54z"/>
			</g>
			<g>
				<path class="st1" d="M176.23-111.82v21.91H175v-21.91H176.23z M177.45-109.41v-1.39c1.72-0.94,3.76-1.43,5.68-1.43
					c3.64,0,7.11,1.84,8.46,5.48c0.25,0.65,0.49,1.35,0.49,2.86v13.98h-1.23v-13.98c0-4.66-4.05-7.11-7.73-7.11
					C181.17-111.01,179.09-110.43,177.45-109.41z"/>
			</g>
		</g>
	</g>
	<g>
		<path class="st1" d="M11.34-39.56v9.22h-1.2v-9.22H11.34z"/>
		<path class="st1" d="M19.06-36.92c0.55,0.53,0.82,1.3,0.82,2.31v4.27h-1.19v-4.1c0-0.72-0.18-1.28-0.54-1.66
			c-0.36-0.38-0.85-0.58-1.48-0.58c-0.63,0-1.14,0.2-1.51,0.59c-0.38,0.4-0.56,0.97-0.56,1.73v4.01h-1.2v-7.25h1.2v1.03
			c0.24-0.37,0.56-0.66,0.97-0.86c0.41-0.2,0.86-0.3,1.36-0.3C17.8-37.72,18.51-37.46,19.06-36.92z"/>
		<path class="st1" d="M23.32-36.6v4.27c0,0.35,0.08,0.6,0.23,0.75s0.41,0.22,0.78,0.22h0.89v1.02h-1.08
			c-0.67,0-1.17-0.15-1.51-0.46s-0.5-0.82-0.5-1.52v-4.27h-0.94v-0.99h0.94v-1.82h1.2v1.82h1.89v0.99H23.32z"/>
		<path class="st1" d="M33.23-33.52h-5.79c0.04,0.71,0.29,1.27,0.73,1.67s0.99,0.6,1.62,0.6c0.52,0,0.95-0.12,1.3-0.36
			s0.59-0.57,0.73-0.97h1.3c-0.19,0.7-0.58,1.26-1.16,1.7c-0.58,0.44-1.3,0.65-2.17,0.65c-0.69,0-1.3-0.15-1.84-0.46
			C27.41-31,26.98-31.43,26.67-32c-0.31-0.57-0.46-1.23-0.46-1.98c0-0.75,0.15-1.41,0.45-1.97c0.3-0.56,0.72-1,1.26-1.3
			c0.54-0.3,1.17-0.46,1.87-0.46c0.69,0,1.3,0.15,1.82,0.45c0.53,0.3,0.94,0.71,1.22,1.24s0.43,1.12,0.43,1.78
			C33.27-34.02,33.26-33.77,33.23-33.52z M31.73-35.68c-0.2-0.33-0.48-0.58-0.83-0.75s-0.73-0.26-1.16-0.26
			c-0.61,0-1.13,0.19-1.55,0.58s-0.67,0.93-0.73,1.61h4.58C32.03-34.95,31.93-35.35,31.73-35.68z"/>
		<path class="st1" d="M36.97-37.38c0.39-0.23,0.87-0.34,1.43-0.34v1.24h-0.32c-1.35,0-2.02,0.73-2.02,2.2v3.94h-1.2v-7.25h1.2v1.18
			C36.27-36.83,36.58-37.15,36.97-37.38z"/>
		<path class="st1" d="M39.83-39c-0.16-0.16-0.24-0.35-0.24-0.58s0.08-0.42,0.24-0.58c0.16-0.16,0.35-0.24,0.58-0.24
			c0.22,0,0.41,0.08,0.56,0.24c0.15,0.16,0.23,0.35,0.23,0.58s-0.08,0.42-0.23,0.58c-0.15,0.16-0.34,0.24-0.56,0.24
			C40.18-38.77,39.99-38.85,39.83-39z M41-37.59v7.25h-1.2v-7.25H41z"/>
		<path class="st1" d="M44.36-30.69c-0.55-0.31-0.98-0.75-1.3-1.32c-0.31-0.57-0.47-1.23-0.47-1.98c0-0.74,0.16-1.39,0.48-1.96
			c0.32-0.57,0.76-1,1.32-1.31c0.56-0.3,1.18-0.46,1.86-0.46c0.69,0,1.31,0.15,1.86,0.46c0.56,0.3,0.99,0.74,1.32,1.3
			c0.32,0.56,0.48,1.22,0.48,1.97c0,0.75-0.17,1.41-0.5,1.98c-0.33,0.57-0.78,1.01-1.34,1.32c-0.56,0.31-1.19,0.46-1.88,0.46
			C45.53-30.22,44.91-30.38,44.36-30.69z M47.42-31.59c0.38-0.2,0.69-0.51,0.92-0.91c0.23-0.41,0.35-0.9,0.35-1.48
			s-0.11-1.08-0.34-1.48c-0.23-0.41-0.53-0.71-0.9-0.91c-0.37-0.2-0.77-0.3-1.2-0.3c-0.44,0-0.84,0.1-1.21,0.3s-0.66,0.5-0.88,0.91
			c-0.22,0.41-0.33,0.9-0.33,1.48c0,0.59,0.11,1.09,0.32,1.49c0.22,0.41,0.5,0.71,0.87,0.91c0.36,0.2,0.76,0.3,1.19,0.3
			C46.64-31.28,47.04-31.38,47.42-31.59z"/>
		<path class="st1" d="M53.62-37.38c0.39-0.23,0.87-0.34,1.43-0.34v1.24h-0.32c-1.35,0-2.02,0.73-2.02,2.2v3.94h-1.2v-7.25h1.2v1.18
			C52.92-36.83,53.22-37.15,53.62-37.38z"/>
		<path class="st1" d="M67.05-30.34l-1.2-1.22c-0.45,0.47-0.93,0.81-1.44,1.04c-0.51,0.22-1.09,0.34-1.73,0.34
			c-0.63,0-1.2-0.11-1.69-0.34c-0.49-0.23-0.87-0.55-1.14-0.98c-0.27-0.42-0.4-0.92-0.4-1.48c0-0.64,0.18-1.21,0.55-1.7
			s0.91-0.88,1.62-1.16c-0.28-0.33-0.49-0.64-0.61-0.93c-0.12-0.28-0.19-0.59-0.19-0.93c0-0.39,0.1-0.74,0.3-1.05
			c0.2-0.31,0.48-0.56,0.85-0.73c0.37-0.18,0.8-0.26,1.28-0.26c0.48,0,0.89,0.09,1.24,0.28c0.35,0.18,0.62,0.44,0.79,0.77
			c0.18,0.33,0.26,0.7,0.24,1.1h-1.2c0.01-0.36-0.09-0.65-0.3-0.85c-0.21-0.21-0.49-0.31-0.82-0.31c-0.35,0-0.64,0.1-0.85,0.3
			c-0.22,0.2-0.32,0.45-0.32,0.76c0,0.26,0.07,0.52,0.22,0.77c0.15,0.25,0.39,0.55,0.73,0.91l2.75,2.76l0.24-0.37l0.9-1.51h1.3
			l-1.08,1.88c-0.15,0.26-0.33,0.54-0.53,0.83l2.08,2.08H67.05z M63.96-31.49c0.38-0.19,0.75-0.47,1.09-0.86l-2.71-2.72
			c-1.13,0.43-1.69,1.12-1.69,2.05c0,0.52,0.19,0.95,0.56,1.3c0.37,0.34,0.86,0.52,1.46,0.52C63.14-31.22,63.57-31.31,63.96-31.49z"
			/>
		<path class="st1" d="M74.48-38.58v3.08h3.36v0.99h-3.36v3.17h3.76v0.99h-4.96v-9.23h4.96v0.99H74.48z"/>
		<path class="st1" d="M83.84-30.34l-1.72-2.7l-1.65,2.7h-1.26l2.34-3.6l-2.34-3.65h1.36l1.72,2.68l1.64-2.68h1.26l-2.33,3.58
			l2.34,3.66H83.84z"/>
		<path class="st1" d="M87.86-36.6v4.27c0,0.35,0.08,0.6,0.23,0.75s0.41,0.22,0.78,0.22h0.89v1.02h-1.08
			c-0.67,0-1.17-0.15-1.51-0.46s-0.5-0.82-0.5-1.52v-4.27h-0.94v-0.99h0.94v-1.82h1.2v1.82h1.89v0.99H87.86z"/>
		<path class="st1" d="M97.78-33.52h-5.79c0.04,0.71,0.29,1.27,0.73,1.67s0.99,0.6,1.62,0.6c0.52,0,0.95-0.12,1.3-0.36
			s0.59-0.57,0.73-0.97h1.3c-0.19,0.7-0.58,1.26-1.16,1.7c-0.58,0.44-1.3,0.65-2.17,0.65c-0.69,0-1.3-0.15-1.84-0.46
			C91.95-31,91.53-31.43,91.22-32c-0.31-0.57-0.46-1.23-0.46-1.98c0-0.75,0.15-1.41,0.45-1.97c0.3-0.56,0.72-1,1.26-1.3
			c0.54-0.3,1.17-0.46,1.87-0.46c0.69,0,1.3,0.15,1.82,0.45s0.94,0.71,1.22,1.24s0.43,1.12,0.43,1.78
			C97.82-34.02,97.8-33.77,97.78-33.52z M96.27-35.68c-0.2-0.33-0.48-0.58-0.83-0.75s-0.73-0.26-1.16-0.26
			c-0.61,0-1.13,0.19-1.55,0.58S92.06-35.18,92-34.5h4.58C96.57-34.95,96.47-35.35,96.27-35.68z"/>
		<path class="st1" d="M101.51-37.38c0.39-0.23,0.87-0.34,1.43-0.34v1.24h-0.32c-1.35,0-2.02,0.73-2.02,2.2v3.94h-1.2v-7.25h1.2
			v1.18C100.82-36.83,101.12-37.15,101.51-37.38z"/>
		<path class="st1" d="M104.38-39c-0.16-0.16-0.24-0.35-0.24-0.58s0.08-0.42,0.24-0.58c0.16-0.16,0.35-0.24,0.58-0.24
			c0.22,0,0.41,0.08,0.56,0.24c0.15,0.16,0.23,0.35,0.23,0.58s-0.08,0.42-0.23,0.58c-0.15,0.16-0.34,0.24-0.56,0.24
			C104.73-38.77,104.54-38.85,104.38-39z M105.54-37.59v7.25h-1.2v-7.25H105.54z"/>
		<path class="st1" d="M108.91-30.69c-0.55-0.31-0.98-0.75-1.3-1.32c-0.31-0.57-0.47-1.23-0.47-1.98c0-0.74,0.16-1.39,0.48-1.96
			c0.32-0.57,0.76-1,1.32-1.31c0.56-0.3,1.18-0.46,1.86-0.46s1.31,0.15,1.86,0.46c0.56,0.3,0.99,0.74,1.32,1.3
			c0.32,0.56,0.48,1.22,0.48,1.97c0,0.75-0.17,1.41-0.5,1.98c-0.33,0.57-0.78,1.01-1.34,1.32c-0.56,0.31-1.19,0.46-1.88,0.46
			C110.07-30.22,109.46-30.38,108.91-30.69z M111.97-31.59c0.38-0.2,0.69-0.51,0.92-0.91s0.35-0.9,0.35-1.48s-0.12-1.08-0.34-1.48
			c-0.23-0.41-0.53-0.71-0.9-0.91s-0.77-0.3-1.2-0.3c-0.44,0-0.84,0.1-1.21,0.3c-0.37,0.2-0.66,0.5-0.88,0.91
			c-0.22,0.41-0.33,0.9-0.33,1.48c0,0.59,0.11,1.09,0.32,1.49c0.22,0.41,0.5,0.71,0.87,0.91s0.76,0.3,1.19,0.3
			S111.59-31.38,111.97-31.59z"/>
		<path class="st1" d="M118.16-37.38c0.39-0.23,0.87-0.34,1.44-0.34v1.24h-0.32c-1.35,0-2.02,0.73-2.02,2.2v3.94h-1.2v-7.25h1.2
			v1.18C117.47-36.83,117.77-37.15,118.16-37.38z"/>
		<path class="st1" d="M124.67-37.39c0.41-0.72,0.96-1.28,1.66-1.69c0.7-0.41,1.48-0.61,2.33-0.61c1,0,1.88,0.24,2.63,0.73
			c0.75,0.48,1.3,1.17,1.64,2.06h-1.44c-0.26-0.56-0.62-0.98-1.1-1.28s-1.06-0.45-1.73-0.45c-0.64,0-1.22,0.15-1.73,0.45
			c-0.51,0.3-0.91,0.72-1.2,1.28c-0.29,0.55-0.44,1.2-0.44,1.94c0,0.73,0.15,1.37,0.44,1.92c0.29,0.55,0.69,0.98,1.2,1.28
			c0.51,0.3,1.09,0.45,1.73,0.45c0.67,0,1.25-0.15,1.73-0.44s0.85-0.72,1.1-1.28h1.44c-0.34,0.88-0.89,1.56-1.64,2.04
			s-1.63,0.72-2.63,0.72c-0.86,0-1.63-0.2-2.33-0.6c-0.7-0.4-1.25-0.96-1.66-1.67s-0.61-1.52-0.61-2.42S124.27-36.67,124.67-37.39z"
			/>
		<path class="st1" d="M136.04-30.69c-0.55-0.31-0.98-0.75-1.3-1.32c-0.31-0.57-0.47-1.23-0.47-1.98c0-0.74,0.16-1.39,0.48-1.96
			c0.32-0.57,0.76-1,1.32-1.31c0.56-0.3,1.18-0.46,1.86-0.46s1.31,0.15,1.86,0.46c0.56,0.3,0.99,0.74,1.32,1.3
			c0.32,0.56,0.48,1.22,0.48,1.97c0,0.75-0.17,1.41-0.5,1.98c-0.33,0.57-0.78,1.01-1.34,1.32c-0.56,0.31-1.19,0.46-1.88,0.46
			C137.21-30.22,136.59-30.38,136.04-30.69z M139.1-31.59c0.38-0.2,0.69-0.51,0.92-0.91s0.35-0.9,0.35-1.48s-0.12-1.08-0.34-1.48
			c-0.23-0.41-0.53-0.71-0.9-0.91s-0.77-0.3-1.2-0.3c-0.44,0-0.84,0.1-1.21,0.3c-0.37,0.2-0.66,0.5-0.88,0.91
			c-0.22,0.41-0.33,0.9-0.33,1.48c0,0.59,0.11,1.09,0.32,1.49c0.22,0.41,0.5,0.71,0.87,0.91s0.76,0.3,1.19,0.3
			S138.72-31.38,139.1-31.59z"/>
		<path class="st1" d="M148.86-36.92c0.55,0.53,0.82,1.3,0.82,2.31v4.27h-1.19v-4.1c0-0.72-0.18-1.28-0.54-1.66
			c-0.36-0.38-0.85-0.58-1.48-0.58c-0.63,0-1.14,0.2-1.51,0.59c-0.37,0.4-0.56,0.97-0.56,1.73v4.01h-1.2v-7.25h1.2v1.03
			c0.24-0.37,0.56-0.66,0.97-0.86c0.41-0.2,0.86-0.3,1.36-0.3C147.6-37.72,148.31-37.46,148.86-36.92z"/>
		<path class="st1" d="M152.72-30.51c-0.44-0.19-0.79-0.45-1.04-0.79c-0.26-0.34-0.4-0.73-0.42-1.17h1.24
			c0.04,0.36,0.21,0.66,0.51,0.89c0.3,0.23,0.7,0.34,1.2,0.34c0.46,0,0.82-0.1,1.08-0.3c0.26-0.2,0.4-0.46,0.4-0.77
			c0-0.32-0.14-0.55-0.42-0.71s-0.72-0.31-1.31-0.46c-0.54-0.14-0.98-0.28-1.32-0.43c-0.34-0.15-0.63-0.36-0.87-0.65
			c-0.24-0.29-0.36-0.66-0.36-1.13c0-0.37,0.11-0.71,0.33-1.02c0.22-0.31,0.53-0.55,0.94-0.73s0.87-0.27,1.39-0.27
			c0.8,0,1.45,0.2,1.94,0.61c0.49,0.41,0.76,0.96,0.79,1.67h-1.2c-0.03-0.38-0.18-0.68-0.46-0.91c-0.28-0.23-0.65-0.34-1.12-0.34
			c-0.43,0-0.78,0.09-1.03,0.28c-0.26,0.18-0.38,0.43-0.38,0.73c0,0.24,0.08,0.43,0.23,0.59c0.15,0.15,0.35,0.28,0.58,0.37
			s0.56,0.2,0.97,0.31c0.52,0.14,0.94,0.28,1.27,0.42s0.61,0.34,0.84,0.62c0.23,0.27,0.36,0.63,0.36,1.07c0,0.4-0.11,0.75-0.33,1.07
			c-0.22,0.32-0.53,0.57-0.93,0.75c-0.4,0.18-0.86,0.27-1.38,0.27C153.66-30.22,153.16-30.32,152.72-30.51z"/>
		<path class="st1" d="M164.98-37.59v7.25h-1.2v-1.07c-0.23,0.37-0.55,0.66-0.96,0.87c-0.41,0.21-0.86,0.31-1.36,0.31
			c-0.56,0-1.07-0.12-1.52-0.35c-0.45-0.23-0.8-0.58-1.06-1.05c-0.26-0.47-0.39-1.04-0.39-1.71v-4.25h1.19v4.09
			c0,0.71,0.18,1.26,0.54,1.65c0.36,0.38,0.85,0.58,1.48,0.58c0.64,0,1.15-0.2,1.52-0.6s0.55-0.97,0.55-1.73v-3.98H164.98z"/>
		<path class="st1" d="M168.22-40.13v9.79h-1.2v-9.79H168.22z"/>
		<path class="st1" d="M171.74-36.6v4.27c0,0.35,0.07,0.6,0.22,0.75c0.15,0.15,0.41,0.22,0.78,0.22h0.89v1.02h-1.08
			c-0.67,0-1.17-0.15-1.51-0.46s-0.5-0.82-0.5-1.52v-4.27h-0.94v-0.99h0.94v-1.82h1.2v1.82h1.89v0.99H171.74z"/>
		<path class="st1" d="M175.08-35.94c0.3-0.56,0.71-0.99,1.24-1.3s1.11-0.46,1.75-0.46c0.63,0,1.19,0.14,1.65,0.41
			c0.47,0.27,0.82,0.62,1.04,1.03v-1.32h1.22v7.25h-1.22v-1.35c-0.24,0.42-0.59,0.77-1.06,1.05c-0.47,0.28-1.02,0.42-1.65,0.42
			c-0.64,0-1.22-0.16-1.75-0.48s-0.93-0.76-1.23-1.33c-0.3-0.57-0.45-1.23-0.45-1.96C174.63-34.73,174.78-35.38,175.08-35.94z
			 M180.44-35.41c-0.22-0.41-0.52-0.72-0.89-0.93c-0.38-0.22-0.79-0.32-1.24-0.32c-0.45,0-0.86,0.11-1.23,0.32
			c-0.37,0.21-0.67,0.52-0.89,0.93c-0.22,0.41-0.33,0.88-0.33,1.43c0,0.55,0.11,1.04,0.33,1.45c0.22,0.41,0.52,0.72,0.89,0.94
			c0.37,0.22,0.78,0.32,1.23,0.32c0.45,0,0.86-0.11,1.24-0.32c0.37-0.22,0.67-0.53,0.89-0.94c0.22-0.41,0.33-0.89,0.33-1.43
			C180.77-34.53,180.66-35,180.44-35.41z"/>
		<path class="st1" d="M189.7-36.92c0.55,0.53,0.82,1.3,0.82,2.31v4.27h-1.19v-4.1c0-0.72-0.18-1.28-0.54-1.66
			c-0.36-0.38-0.85-0.58-1.48-0.58c-0.63,0-1.14,0.2-1.51,0.59c-0.37,0.4-0.56,0.97-0.56,1.73v4.01h-1.2v-7.25h1.2v1.03
			c0.24-0.37,0.56-0.66,0.97-0.86c0.41-0.2,0.86-0.3,1.36-0.3C188.43-37.72,189.15-37.46,189.7-36.92z"/>
		<path class="st1" d="M193.95-36.6v4.27c0,0.35,0.07,0.6,0.22,0.75c0.15,0.15,0.41,0.22,0.78,0.22h0.89v1.02h-1.08
			c-0.67,0-1.17-0.15-1.51-0.46s-0.5-0.82-0.5-1.52v-4.27h-0.94v-0.99h0.94v-1.82h1.2v1.82h1.89v0.99H193.95z"/>
	</g>
</g>
<g>
	<g>
		<g>
			<path class="st0" d="M87.1,127.35c0-24.11,0-48.21,0-72.32c0.05,0,0.09,0,0.14,0c0,24.09,0,48.18,0,72.28
				C87.19,127.32,87.14,127.34,87.1,127.35z"/>
		</g>
	</g>
	<g>
		<g>
			<path class="st0" d="M34.56,103.5c0.46,0.02,0.2,0.37,0.21,0.54c0.02,1.92,0.01,3.84,0.01,5.76c-0.43-0.68-0.16-1.42-0.19-2.14
				C34.54,106.27,34.56,104.88,34.56,103.5z"/>
		</g>
	</g>
	<g>
		<g>
			<path class="st2" d="M37.2,86.71c-0.4-0.16-0.73-0.29-1.01-0.42C36.54,86.41,36.88,86.55,37.2,86.71z"/>
		</g>
	</g>
	<g>
		<g>
			<g>
				<g>
					<rect x="34.55" y="67.34" class="st0" width="0.18" height="42.22"/>
				</g>
			</g>
		</g>
		<g>
			<g>
				<g>
					<rect x="1.83" y="94.46" class="st0" width="48.15" height="0.18"/>
				</g>
			</g>
		</g>
		<g>
			<g>
				<g>
					<path class="st0" d="M33.61,81.36c-7.27,0-13.19,5.92-13.19,13.19c0,3.14,1.1,6.03,2.94,8.29l0.17-0.07
						c-1.84-2.24-2.94-5.11-2.94-8.22c0-7.18,5.84-13.01,13.01-13.01c6.75,0,12.31,5.16,12.95,11.75l0.17-0.07
						C46.06,86.56,40.44,81.36,33.61,81.36z"/>
				</g>
			</g>
		</g>
	</g>
	<g>
		<g>
			<path class="st3" d="M68.18,126.97c-3.81,0-7.62,0.01-11.43-0.01c-0.56,0-1.12-0.09-1.68-0.16c-0.56-0.07-0.86-0.39-0.88-0.98
				c-0.02-0.58,0.11-0.95,0.71-1.23c0.84-0.4,1.75-0.22,2.61-0.62c3.05-1.44,4.03-4.31,3.62-7.27c-0.52-3.75-2-7.23-3.32-10.75
				c-1.58-4.22-3.14-8.45-4.79-12.64c-1.03-2.62-2.27-5.15-3.3-7.77c-1.4-3.55-3.39-6.78-5.1-10.17c-0.92-1.82-2.71-2.7-4.65-1.06
				c-0.55,0.46-1.12,0.3-1.63-0.15c-0.6-0.53-1.5-0.93-1-1.98c0.94-1.95,1.94-3.88,2.9-5.82c1.74-3.52,3.46-7.05,5.19-10.58
				c0.31-0.64,0.77-1.1,1.5-0.84c0.75,0.26,1.18,0.89,0.93,1.69c-1.2,3.86-0.11,7.47,1.42,10.91c2.54,5.69,5.29,11.28,7.94,16.92
				c2.13,4.52,4.24,9.04,6.35,13.57c3.07,6.6,6.19,13.19,9.18,19.83c1.37,3.05,3.35,5.36,6.46,6.65c0.36,0.15,0.71,0.25,1.08,0.24
				c0.74-0.02,1.29,0.21,1.32,1.03c0.03,0.91-0.67,1.12-1.36,1.15c-1.28,0.06-2.56,0.02-3.84,0.02
				C73.69,126.97,70.94,126.97,68.18,126.97z"/>
		</g>
	</g>
	<g>
		<g>
			<path class="st3" d="M42.02,94.41c0,3.83-2.52,7.08-5.99,8.17c-0.31,0.1-0.63,0.18-0.96,0.24c-0.05,0.01-0.1,0.02-0.15,0.03
				c-0.33,0.06-0.66,0.1-0.99,0.11c-0.16,0.01-0.32,0.01-0.48,0.01c-0.02,0-0.04,0-0.06,0c-0.01,0-0.02,0-0.04,0
				c-0.56,0.15-0.87,0.69-1.11,1.36c-1.27,3.65-2.55,7.31-3.84,10.95c-0.52,1.46-1,2.92-1.06,4.48c-0.1,2.72,1.33,4.54,3.98,5.1
				c0.33,0.07,0.66,0.16,0.99,0.22c0.44,0.08,0.96,0.06,1,0.68c0.04,0.64-0.46,0.91-0.94,1.13c-0.23,0.1-0.52,0.06-0.78,0.06
				c-5.66,0-11.31,0-16.97,0.01c-0.51,0-0.94-0.18-1.4-0.34c-0.61-0.22-0.57-0.71-0.61-1.2c-0.05-0.55,0.31-0.73,0.74-0.82
				c1.47-0.33,2.86-0.77,4.11-1.69c1.69-1.24,2.5-3.03,3.29-4.86c1.19-2.75,2.38-5.49,3.53-8.25c0.98-2.35,2.17-4.61,2.88-7.08
				c0.26-0.91,0.3-1.71,0.04-2.48c0,0,0,0,0-0.01c-0.02-0.02-0.04-0.04-0.06-0.06c-1.39-1.52-2.24-3.55-2.24-5.78
				c0-3.86,2.55-7.12,6.05-8.19c0.08-0.02,0.15-0.05,0.23-0.07c0.73-0.2,1.5-0.31,2.29-0.31c0.29,0,0.58,0.01,0.86,0.04
				c0.45,0.04,0.89,0.12,1.31,0.23c0.16,0.04,0.32,0.09,0.47,0.14c0.03,0.01,0.07,0.02,0.1,0.03c0.28,0.12,0.61,0.26,1.01,0.42
				c0.04,0.02,0.08,0.04,0.12,0.06c1.53,0.78,2.8,2,3.63,3.5c0.67,1.21,1.06,2.61,1.07,4.09v0.01
				C42.02,94.38,42.02,94.4,42.02,94.41z"/>
		</g>
	</g>
	<g>
		<g>
			<path class="st0" d="M93.33,93.99v24.77h-1.06V93.99H93.33z"/>
		</g>
		<g>
			<path class="st0" d="M99.2,99.79v18.97h-1.06V99.79H99.2z M100.26,101.88v-1.2c1.49-0.81,3.26-1.24,4.92-1.24
				c3.15,0,6.16,1.59,7.33,4.74c0.21,0.57,0.42,1.17,0.42,2.48v12.1h-1.06v-12.1c0-4.03-3.5-6.16-6.69-6.16
				C103.48,100.5,101.68,100.99,100.26,101.88z"/>
		</g>
		<g>
			<path class="st0" d="M118.45,112.1c0,3.86,2.37,5.63,5.41,5.63c0.21,0,0.5,0,0.81-0.04l0.14,1.06c-0.32,0.04-0.67,0.04-0.96,0.04
				c-3.61,0-6.48-2.12-6.48-6.69v-11.25h-1.59v-1.06h1.59v-6.16h1.06V112.1z M124.04,100.85h-4.53v-1.06h4.53V100.85z"/>
		</g>
		<g>
			<path class="st0" d="M141.63,107.29c0-2.97-2.34-6.79-6.79-6.79c-3.01,0-7.36,2.37-7.36,8.71c0,4.21,3.57,8.63,11.01,8.63
				c0.67,0,1.42-0.07,2.16-0.14v1.06c-0.78,0.07-1.56,0.14-2.26,0.14c-7.86,0-11.96-4.78-11.96-9.7c0-7.36,5.2-9.77,8.42-9.77
				c5.02,0,7.93,3.89,7.93,8.92h-14.19c0-0.35,0.04-0.71,0.11-1.06H141.63z"/>
		</g>
		<g>
			<path class="st0" d="M147.93,99.79v18.97h-1.06V99.79H147.93z M153.91,100.5c-1.7,0-3.5,0.5-4.92,1.38v-1.2
				c1.49-0.81,3.26-1.24,4.92-1.24V100.5z"/>
		</g>
		<g>
			<path class="st0" d="M157.27,93.99h1.77v1.77h-1.77V93.99z M158.69,99.79v18.97h-1.06V99.79H158.69z"/>
		</g>
		<g>
			<path class="st0" d="M172.24,118.05v1.03c-5.17-0.28-9.31-4.56-9.31-9.8c0-5.24,4.14-9.52,9.31-9.8v1.06
				c-4.6,0.28-8.25,4.07-8.25,8.74C163.99,113.94,167.64,117.77,172.24,118.05z M173.3,119.08v-1.03c4.6-0.28,8.24-4.1,8.24-8.78
				c0-4.67-3.64-8.46-8.24-8.74v-1.06c5.17,0.28,9.31,4.56,9.31,9.8C182.61,114.51,178.47,118.79,173.3,119.08z"/>
		</g>
		<g>
			<path class="st0" d="M187.77,99.79v18.97h-1.06V99.79H187.77z M193.75,100.5c-1.7,0-3.5,0.5-4.92,1.38v-1.2
				c1.49-0.81,3.26-1.24,4.92-1.24V100.5z"/>
		</g>
	</g>
	<g>
		<g>
			<path class="st0" d="M102.39,59.47l-9.38,24.87l-1.17-0.42l9.88-26.21L102.39,59.47z M102.39,55.91l0.67-1.8l11.22,29.81
				l-1.17,0.42l-3.06-8.12H97.41l0.46-1.26h11.68L102.39,55.91z"/>
		</g>
		<g>
			<path class="st0" d="M120.35,61.69v22.44h-1.26V61.69H120.35z M127.42,62.52c-2.01,0-4.15,0.59-5.82,1.63v-1.42
				c1.76-0.96,3.85-1.47,5.82-1.47V62.52z"/>
		</g>
		<g>
			<path class="st0" d="M145.76,84.3c-0.92,0.08-1.8,0.13-2.68,0.13c-9.46,0-14.19-5.74-14.19-11.51c0-5.78,4.73-11.56,14.19-11.56
				c0.88,0,1.76,0.04,2.68,0.13l-0.08,1.26c-0.92-0.08-1.8-0.13-2.6-0.13c-8.63,0-12.94,5.19-12.94,10.3
				c0,5.11,4.31,10.26,12.94,10.26c0.8,0,1.67-0.04,2.6-0.13L145.76,84.3z"/>
		</g>
		<g>
			<path class="st0" d="M159.7,83.29v1.21c-6.11-0.34-11.01-5.4-11.01-11.6c0-6.2,4.9-11.26,11.01-11.6v1.26
				c-5.44,0.33-9.76,4.81-9.76,10.34C149.95,78.43,154.26,82.96,159.7,83.29z M160.96,84.5v-1.21c5.44-0.33,9.76-4.86,9.76-10.38
				c0-5.53-4.31-10.01-9.76-10.34v-1.26c6.11,0.33,11.01,5.4,11.01,11.6C171.97,79.1,167.07,84.17,160.96,84.5z"/>
		</g>
		<g>
			<path class="st0" d="M178.08,61.69v22.44h-1.26V61.69H178.08z M179.33,64.16v-1.42c1.76-0.96,3.85-1.47,5.82-1.47
				c3.73,0,7.28,1.88,8.67,5.61c0.25,0.67,0.5,1.38,0.5,2.93v14.32h-1.26V69.81c0-4.77-4.14-7.29-7.91-7.29
				C183.14,62.52,181.01,63.11,179.33,64.16z"/>
		</g>
	</g>
	<g>
		<path class="st0" d="M9.18,135.7v9.44H7.95v-9.44H9.18z"/>
		<path class="st0" d="M17.09,138.4c0.56,0.55,0.84,1.33,0.84,2.36v4.37h-1.22v-4.2c0-0.74-0.19-1.31-0.56-1.7
			c-0.37-0.39-0.88-0.59-1.52-0.59c-0.65,0-1.17,0.2-1.55,0.61c-0.38,0.41-0.58,1-0.58,1.77v4.1h-1.23v-7.42h1.23v1.06
			c0.24-0.38,0.58-0.67,1-0.88c0.42-0.21,0.88-0.31,1.39-0.31C15.8,137.58,16.53,137.86,17.09,138.4z"/>
		<path class="st0" d="M21.45,138.74v4.38c0,0.36,0.08,0.62,0.23,0.77c0.15,0.15,0.42,0.22,0.8,0.22h0.91v1.04h-1.11
			c-0.69,0-1.2-0.16-1.54-0.47c-0.34-0.32-0.51-0.84-0.51-1.56v-4.38h-0.96v-1.02h0.96v-1.87h1.23v1.87h1.94v1.02H21.45z"/>
		<path class="st0" d="M31.61,141.89h-5.93c0.05,0.73,0.3,1.3,0.75,1.71c0.46,0.41,1.01,0.62,1.66,0.62c0.53,0,0.98-0.12,1.33-0.37
			c0.36-0.25,0.61-0.58,0.75-1h1.33c-0.2,0.71-0.6,1.29-1.19,1.74c-0.6,0.45-1.34,0.67-2.22,0.67c-0.7,0-1.33-0.16-1.89-0.47
			s-0.99-0.77-1.31-1.35s-0.47-1.26-0.47-2.02c0-0.77,0.15-1.44,0.46-2.02c0.31-0.58,0.74-1.02,1.29-1.33
			c0.56-0.31,1.19-0.47,1.92-0.47c0.7,0,1.33,0.15,1.87,0.46c0.54,0.31,0.96,0.73,1.25,1.27c0.29,0.54,0.44,1.14,0.44,1.82
			C31.65,141.38,31.64,141.63,31.61,141.89z M30.07,139.68c-0.21-0.34-0.49-0.6-0.85-0.77c-0.36-0.18-0.75-0.26-1.19-0.26
			c-0.62,0-1.15,0.2-1.59,0.6c-0.44,0.4-0.69,0.95-0.75,1.65h4.69C30.38,140.42,30.28,140.02,30.07,139.68z"/>
		<path class="st0" d="M35.44,137.94c0.4-0.23,0.89-0.35,1.47-0.35v1.27h-0.33c-1.38,0-2.07,0.75-2.07,2.25v4.04h-1.23v-7.42h1.23
			v1.21C34.73,138.5,35.04,138.17,35.44,137.94z"/>
		<path class="st0" d="M38.37,136.27c-0.16-0.16-0.24-0.36-0.24-0.6c0-0.23,0.08-0.43,0.24-0.6s0.36-0.24,0.6-0.24
			c0.23,0,0.42,0.08,0.58,0.24c0.16,0.16,0.24,0.36,0.24,0.6c0,0.24-0.08,0.43-0.24,0.6c-0.16,0.16-0.35,0.24-0.58,0.24
			C38.73,136.51,38.53,136.43,38.37,136.27z M39.56,137.72v7.42h-1.23v-7.42H39.56z"/>
		<path class="st0" d="M43.01,144.79c-0.56-0.32-1.01-0.77-1.33-1.35c-0.32-0.58-0.48-1.26-0.48-2.02c0-0.76,0.16-1.43,0.49-2.01
			c0.33-0.58,0.78-1.03,1.35-1.34c0.57-0.31,1.21-0.47,1.91-0.47c0.7,0,1.34,0.16,1.91,0.47c0.57,0.31,1.02,0.76,1.35,1.33
			s0.49,1.25,0.49,2.02c0,0.77-0.17,1.44-0.51,2.02c-0.34,0.58-0.8,1.03-1.37,1.35c-0.58,0.32-1.22,0.47-1.92,0.47
			C44.2,145.26,43.57,145.11,43.01,144.79z M46.15,143.87c0.39-0.21,0.7-0.52,0.94-0.93c0.24-0.41,0.36-0.92,0.36-1.52
			c0-0.6-0.12-1.1-0.35-1.52c-0.23-0.41-0.54-0.72-0.92-0.93c-0.38-0.2-0.79-0.3-1.23-0.3c-0.45,0-0.87,0.1-1.24,0.3
			c-0.38,0.2-0.67,0.51-0.9,0.93c-0.23,0.42-0.34,0.92-0.34,1.52c0,0.6,0.11,1.11,0.33,1.53c0.22,0.41,0.52,0.72,0.89,0.93
			c0.37,0.2,0.78,0.3,1.22,0.3C45.34,144.18,45.76,144.08,46.15,143.87z"/>
		<path class="st0" d="M52.49,137.94c0.4-0.23,0.89-0.35,1.47-0.35v1.27h-0.33c-1.38,0-2.07,0.75-2.07,2.25v4.04h-1.23v-7.42h1.23
			v1.21C51.78,138.5,52.09,138.17,52.49,137.94z"/>
		<path class="st0" d="M66.25,145.14l-1.23-1.25c-0.46,0.48-0.95,0.83-1.48,1.06c-0.52,0.23-1.11,0.35-1.77,0.35
			c-0.65,0-1.23-0.12-1.73-0.35c-0.5-0.23-0.89-0.57-1.16-1c-0.28-0.43-0.41-0.94-0.41-1.52c0-0.66,0.19-1.24,0.56-1.74
			c0.38-0.5,0.93-0.9,1.66-1.19c-0.29-0.34-0.5-0.66-0.62-0.95c-0.13-0.29-0.19-0.6-0.19-0.95c0-0.4,0.1-0.76,0.3-1.08
			c0.2-0.32,0.49-0.57,0.87-0.75c0.38-0.18,0.82-0.27,1.31-0.27c0.49,0,0.91,0.09,1.27,0.28c0.36,0.19,0.63,0.45,0.81,0.79
			c0.18,0.34,0.26,0.72,0.24,1.13h-1.23c0.01-0.37-0.09-0.66-0.31-0.87c-0.22-0.21-0.5-0.32-0.84-0.32c-0.36,0-0.65,0.1-0.87,0.3
			c-0.22,0.2-0.33,0.46-0.33,0.78c0,0.27,0.07,0.53,0.22,0.79c0.15,0.25,0.4,0.56,0.75,0.93l2.82,2.83l0.24-0.38l0.92-1.54h1.33
			l-1.11,1.92c-0.15,0.27-0.33,0.56-0.54,0.85l2.13,2.13H66.25z M63.08,143.96c0.39-0.19,0.77-0.48,1.12-0.88l-2.78-2.79
			c-1.16,0.44-1.73,1.14-1.73,2.1c0,0.53,0.19,0.98,0.58,1.33c0.38,0.35,0.88,0.53,1.5,0.53C62.25,144.25,62.69,144.15,63.08,143.96
			z"/>
		<path class="st0" d="M73.86,136.7v3.16h3.44v1.02h-3.44v3.25h3.85v1.02h-5.08v-9.45h5.08v1.02H73.86z"/>
		<path class="st0" d="M83.45,145.14l-1.76-2.76l-1.69,2.76h-1.29l2.4-3.68l-2.4-3.74h1.4l1.76,2.75l1.68-2.75h1.29l-2.38,3.67
			l2.4,3.75H83.45z"/>
		<path class="st0" d="M87.57,138.74v4.38c0,0.36,0.08,0.62,0.23,0.77c0.15,0.15,0.42,0.22,0.8,0.22h0.91v1.04h-1.11
			c-0.69,0-1.2-0.16-1.54-0.47c-0.34-0.32-0.51-0.84-0.51-1.56v-4.38h-0.96v-1.02h0.96v-1.87h1.23v1.87h1.94v1.02H87.57z"/>
		<path class="st0" d="M97.72,141.89h-5.93c0.05,0.73,0.3,1.3,0.75,1.71c0.46,0.41,1.01,0.62,1.66,0.62c0.53,0,0.98-0.12,1.33-0.37
			c0.36-0.25,0.61-0.58,0.75-1h1.33c-0.2,0.71-0.6,1.29-1.19,1.74c-0.6,0.45-1.34,0.67-2.22,0.67c-0.7,0-1.33-0.16-1.89-0.47
			c-0.56-0.32-0.99-0.77-1.31-1.35c-0.32-0.58-0.47-1.26-0.47-2.02c0-0.77,0.15-1.44,0.46-2.02c0.31-0.58,0.74-1.02,1.29-1.33
			c0.56-0.31,1.19-0.47,1.92-0.47c0.7,0,1.33,0.15,1.87,0.46c0.54,0.31,0.96,0.73,1.25,1.27c0.29,0.54,0.44,1.14,0.44,1.82
			C97.76,141.38,97.75,141.63,97.72,141.89z M96.18,139.68c-0.21-0.34-0.49-0.6-0.85-0.77c-0.36-0.18-0.75-0.26-1.19-0.26
			c-0.62,0-1.15,0.2-1.59,0.6c-0.44,0.4-0.69,0.95-0.75,1.65h4.69C96.49,140.42,96.39,140.02,96.18,139.68z"/>
		<path class="st0" d="M101.55,137.94c0.4-0.23,0.89-0.35,1.47-0.35v1.27h-0.33c-1.38,0-2.07,0.75-2.07,2.25v4.04h-1.23v-7.42h1.23
			v1.21C100.84,138.5,101.15,138.17,101.55,137.94z"/>
		<path class="st0" d="M104.48,136.27c-0.16-0.16-0.24-0.36-0.24-0.6c0-0.23,0.08-0.43,0.24-0.6c0.16-0.16,0.36-0.24,0.6-0.24
			c0.23,0,0.42,0.08,0.58,0.24s0.24,0.36,0.24,0.6c0,0.24-0.08,0.43-0.24,0.6s-0.35,0.24-0.58,0.24
			C104.84,136.51,104.65,136.43,104.48,136.27z M105.67,137.72v7.42h-1.23v-7.42H105.67z"/>
		<path class="st0" d="M109.12,144.79c-0.56-0.32-1.01-0.77-1.33-1.35s-0.48-1.26-0.48-2.02c0-0.76,0.16-1.43,0.49-2.01
			c0.33-0.58,0.78-1.03,1.35-1.34c0.57-0.31,1.21-0.47,1.91-0.47c0.7,0,1.34,0.16,1.91,0.47c0.57,0.31,1.02,0.76,1.35,1.33
			c0.33,0.58,0.49,1.25,0.49,2.02c0,0.77-0.17,1.44-0.51,2.02c-0.34,0.58-0.8,1.03-1.37,1.35c-0.58,0.32-1.22,0.47-1.92,0.47
			C110.32,145.26,109.69,145.11,109.12,144.79z M112.26,143.87c0.39-0.21,0.7-0.52,0.94-0.93c0.24-0.41,0.36-0.92,0.36-1.52
			c0-0.6-0.12-1.1-0.35-1.52c-0.23-0.41-0.54-0.72-0.92-0.93c-0.38-0.2-0.79-0.3-1.23-0.3c-0.45,0-0.87,0.1-1.24,0.3
			c-0.38,0.2-0.67,0.51-0.9,0.93c-0.23,0.42-0.34,0.92-0.34,1.52c0,0.6,0.11,1.11,0.33,1.53c0.22,0.41,0.52,0.72,0.89,0.93
			c0.37,0.2,0.78,0.3,1.22,0.3C111.45,144.18,111.87,144.08,112.26,143.87z"/>
		<path class="st0" d="M118.6,137.94c0.4-0.23,0.89-0.35,1.47-0.35v1.27h-0.33c-1.38,0-2.07,0.75-2.07,2.25v4.04h-1.23v-7.42h1.23
			v1.21C117.89,138.5,118.2,138.17,118.6,137.94z"/>
		<path class="st0" d="M125.27,137.93c0.42-0.74,0.98-1.31,1.7-1.73c0.72-0.42,1.51-0.62,2.39-0.62c1.03,0,1.93,0.25,2.7,0.74
			c0.77,0.5,1.33,1.2,1.68,2.11h-1.48c-0.26-0.57-0.64-1.01-1.13-1.31c-0.49-0.31-1.08-0.46-1.77-0.46c-0.66,0-1.25,0.15-1.77,0.46
			c-0.52,0.31-0.93,0.74-1.23,1.31c-0.3,0.56-0.45,1.23-0.45,1.98c0,0.75,0.15,1.41,0.45,1.97c0.3,0.56,0.71,1,1.23,1.31
			c0.52,0.31,1.11,0.46,1.77,0.46c0.69,0,1.28-0.15,1.77-0.45c0.49-0.3,0.87-0.74,1.13-1.31h1.48c-0.35,0.9-0.91,1.6-1.68,2.09
			c-0.77,0.49-1.67,0.74-2.7,0.74c-0.88,0-1.67-0.21-2.39-0.62c-0.72-0.41-1.28-0.98-1.7-1.71c-0.42-0.73-0.62-1.56-0.62-2.48
			C124.65,139.49,124.86,138.67,125.27,137.93z"/>
		<path class="st0" d="M136.91,144.79c-0.56-0.32-1.01-0.77-1.33-1.35c-0.32-0.58-0.48-1.26-0.48-2.02c0-0.76,0.16-1.43,0.49-2.01
			c0.33-0.58,0.78-1.03,1.35-1.34c0.57-0.31,1.21-0.47,1.91-0.47c0.7,0,1.34,0.16,1.91,0.47c0.57,0.31,1.02,0.76,1.35,1.33
			c0.33,0.58,0.49,1.25,0.49,2.02c0,0.77-0.17,1.44-0.51,2.02c-0.34,0.58-0.8,1.03-1.37,1.35c-0.58,0.32-1.22,0.47-1.92,0.47
			C138.11,145.26,137.48,145.11,136.91,144.79z M140.05,143.87c0.39-0.21,0.7-0.52,0.94-0.93c0.24-0.41,0.36-0.92,0.36-1.52
			c0-0.6-0.12-1.1-0.35-1.52c-0.23-0.41-0.54-0.72-0.92-0.93c-0.38-0.2-0.79-0.3-1.23-0.3c-0.45,0-0.87,0.1-1.24,0.3
			c-0.38,0.2-0.67,0.51-0.9,0.93c-0.23,0.42-0.34,0.92-0.34,1.52c0,0.6,0.11,1.11,0.33,1.53c0.22,0.41,0.52,0.72,0.89,0.93
			c0.37,0.2,0.78,0.3,1.22,0.3C139.25,144.18,139.66,144.08,140.05,143.87z"/>
		<path class="st0" d="M150.05,138.4c0.56,0.55,0.84,1.33,0.84,2.36v4.37h-1.22v-4.2c0-0.74-0.19-1.31-0.56-1.7
			c-0.37-0.39-0.88-0.59-1.52-0.59c-0.65,0-1.17,0.2-1.55,0.61c-0.38,0.41-0.58,1-0.58,1.77v4.1h-1.23v-7.42h1.23v1.06
			c0.24-0.38,0.58-0.67,1-0.88c0.42-0.21,0.88-0.31,1.39-0.31C148.75,137.58,149.49,137.86,150.05,138.4z"/>
		<path class="st0" d="M154,144.97c-0.45-0.19-0.81-0.47-1.07-0.81c-0.26-0.35-0.41-0.75-0.43-1.2h1.27
			c0.04,0.37,0.21,0.67,0.52,0.91c0.31,0.23,0.72,0.35,1.23,0.35c0.47,0,0.84-0.1,1.11-0.31c0.27-0.21,0.41-0.47,0.41-0.79
			c0-0.33-0.14-0.57-0.43-0.72c-0.29-0.16-0.74-0.31-1.34-0.47c-0.55-0.14-1-0.29-1.35-0.44c-0.35-0.15-0.65-0.37-0.89-0.66
			c-0.25-0.29-0.37-0.68-0.37-1.16c0-0.38,0.11-0.73,0.34-1.04c0.23-0.32,0.55-0.57,0.96-0.75s0.89-0.28,1.42-0.28
			c0.82,0,1.48,0.21,1.99,0.62c0.51,0.42,0.78,0.98,0.81,1.71h-1.23c-0.03-0.39-0.18-0.7-0.47-0.93c-0.28-0.24-0.67-0.35-1.14-0.35
			c-0.44,0-0.79,0.09-1.06,0.28s-0.39,0.44-0.39,0.74c0,0.24,0.08,0.45,0.24,0.6c0.16,0.16,0.36,0.28,0.6,0.38
			c0.24,0.09,0.57,0.2,1,0.32c0.53,0.14,0.97,0.29,1.3,0.43c0.33,0.14,0.62,0.35,0.86,0.63s0.36,0.65,0.37,1.1
			c0,0.41-0.11,0.77-0.34,1.1c-0.23,0.33-0.54,0.58-0.95,0.77c-0.41,0.19-0.88,0.28-1.42,0.28
			C154.96,145.26,154.45,145.17,154,144.97z"/>
		<path class="st0" d="M166.56,137.72v7.42h-1.23v-1.1c-0.23,0.38-0.56,0.68-0.98,0.89c-0.42,0.21-0.88,0.32-1.39,0.32
			c-0.58,0-1.1-0.12-1.56-0.36s-0.82-0.6-1.09-1.08c-0.27-0.48-0.4-1.06-0.4-1.75v-4.35h1.22v4.19c0,0.73,0.18,1.29,0.56,1.69
			c0.37,0.39,0.88,0.59,1.52,0.59c0.66,0,1.18-0.2,1.56-0.61c0.38-0.41,0.57-1,0.57-1.77v-4.08H166.56z"/>
		<path class="st0" d="M169.88,135.12v10.02h-1.23v-10.02H169.88z"/>
		<path class="st0" d="M173.48,138.74v4.38c0,0.36,0.08,0.62,0.23,0.77c0.15,0.15,0.42,0.22,0.8,0.22h0.91v1.04h-1.11
			c-0.69,0-1.2-0.16-1.54-0.47c-0.34-0.32-0.51-0.84-0.51-1.56v-4.38h-0.96v-1.02h0.96v-1.87h1.23v1.87h1.94v1.02H173.48z"/>
		<path class="st0" d="M176.9,139.41c0.31-0.57,0.73-1.02,1.27-1.33c0.54-0.32,1.14-0.47,1.79-0.47c0.65,0,1.21,0.14,1.69,0.42
			c0.48,0.28,0.83,0.63,1.07,1.06v-1.35h1.25v7.42h-1.25v-1.38c-0.24,0.43-0.61,0.79-1.09,1.08c-0.48,0.28-1.05,0.43-1.69,0.43
			c-0.66,0-1.26-0.16-1.79-0.49c-0.53-0.33-0.95-0.78-1.26-1.37c-0.31-0.59-0.46-1.26-0.46-2
			C176.44,140.65,176.6,139.98,176.9,139.41z M182.39,139.95c-0.23-0.41-0.53-0.73-0.91-0.95c-0.38-0.22-0.81-0.33-1.27-0.33
			c-0.46,0-0.88,0.11-1.26,0.33c-0.38,0.22-0.68,0.53-0.91,0.95c-0.23,0.42-0.34,0.9-0.34,1.46c0,0.57,0.11,1.06,0.34,1.48
			c0.23,0.42,0.53,0.74,0.91,0.96c0.38,0.22,0.8,0.33,1.26,0.33c0.46,0,0.88-0.11,1.27-0.33c0.38-0.22,0.69-0.54,0.91-0.96
			c0.23-0.42,0.34-0.91,0.34-1.47C182.73,140.86,182.62,140.37,182.39,139.95z"/>
		<path class="st0" d="M191.87,138.4c0.56,0.55,0.84,1.33,0.84,2.36v4.37h-1.22v-4.2c0-0.74-0.19-1.31-0.56-1.7
			c-0.37-0.39-0.88-0.59-1.52-0.59c-0.65,0-1.17,0.2-1.55,0.61c-0.38,0.41-0.58,1-0.58,1.77v4.1h-1.23v-7.42h1.23v1.06
			c0.24-0.38,0.58-0.67,1-0.88c0.42-0.21,0.88-0.31,1.39-0.31C190.58,137.58,191.31,137.86,191.87,138.4z"/>
		<path class="st0" d="M196.23,138.74v4.38c0,0.36,0.08,0.62,0.23,0.77c0.15,0.15,0.42,0.22,0.8,0.22h0.91v1.04h-1.11
			c-0.69,0-1.2-0.16-1.54-0.47c-0.34-0.32-0.51-0.84-0.51-1.56v-4.38h-0.96v-1.02H195v-1.87h1.23v1.87h1.94v1.02H196.23z"/>
	</g>
</g>
<g>
	<g>
		<g>
			<g>
				<path class="st4" d="M315.1,127.35c0-24.11,0-48.21,0-72.32c0.05,0,0.09,0,0.14,0c0,24.09,0,48.18,0,72.28
					C315.19,127.32,315.14,127.34,315.1,127.35z"/>
			</g>
		</g>
		<g>
			<g>
				<path class="st5" d="M262.56,103.5c0.46,0.02,0.2,0.37,0.21,0.54c0.02,1.92,0.01,3.84,0.01,5.76c-0.43-0.68-0.16-1.42-0.19-2.14
					C262.54,106.27,262.56,104.88,262.56,103.5z"/>
			</g>
		</g>
		<g>
			<g>
				<g>
					<path class="st2" d="M265.2,86.71c-0.4-0.16-0.73-0.29-1.01-0.42C264.54,86.41,264.88,86.55,265.2,86.71z"/>
				</g>
			</g>
			<g>
				<g>
					<g>
						<g>
							<rect x="262.55" y="67.34" class="st6" width="0.18" height="42.22"/>
						</g>
					</g>
				</g>
				<g>
					<g>
						<g>
							<rect x="229.83" y="94.46" class="st6" width="48.15" height="0.18"/>
						</g>
					</g>
				</g>
				<g>
					<g>
						<g>
							<path class="st6" d="M261.61,81.36c-7.27,0-13.19,5.92-13.19,13.19c0,3.14,1.1,6.03,2.94,8.29l0.17-0.07
								c-1.84-2.24-2.94-5.11-2.94-8.22c0-7.18,5.84-13.01,13.01-13.01c6.75,0,12.31,5.16,12.95,11.75l0.17-0.07
								C274.06,86.56,268.44,81.36,261.61,81.36z"/>
						</g>
					</g>
				</g>
			</g>
			<g>
				<g>
					<path class="st3" d="M296.18,126.97c-3.81,0-7.62,0.01-11.43-0.01c-0.56,0-1.12-0.09-1.68-0.16c-0.56-0.07-0.86-0.39-0.88-0.98
						c-0.02-0.58,0.11-0.95,0.71-1.23c0.84-0.4,1.75-0.22,2.61-0.62c3.05-1.44,4.03-4.31,3.62-7.27c-0.52-3.75-2-7.23-3.32-10.75
						c-1.58-4.22-3.14-8.45-4.79-12.64c-1.03-2.62-2.27-5.15-3.3-7.77c-1.4-3.55-3.39-6.78-5.1-10.17c-0.92-1.82-2.71-2.7-4.65-1.06
						c-0.55,0.46-1.12,0.3-1.63-0.15c-0.6-0.53-1.5-0.93-1-1.98c0.94-1.95,1.94-3.88,2.9-5.82c1.74-3.52,3.46-7.05,5.19-10.58
						c0.31-0.64,0.77-1.1,1.5-0.84c0.75,0.26,1.18,0.89,0.93,1.69c-1.2,3.86-0.11,7.47,1.42,10.91c2.54,5.69,5.29,11.28,7.94,16.92
						c2.13,4.52,4.24,9.04,6.35,13.57c3.07,6.6,6.19,13.19,9.18,19.83c1.37,3.05,3.35,5.36,6.46,6.65c0.36,0.15,0.71,0.25,1.08,0.24
						c0.74-0.02,1.29,0.21,1.32,1.03c0.03,0.91-0.67,1.12-1.36,1.15c-1.28,0.06-2.56,0.02-3.84,0.02
						C301.69,126.97,298.94,126.97,296.18,126.97z"/>
				</g>
			</g>
			<g>
				<g>
					<path class="st3" d="M270.02,94.41c0,3.83-2.52,7.08-5.99,8.17c-0.31,0.1-0.63,0.18-0.96,0.24c-0.05,0.01-0.1,0.02-0.15,0.03
						c-0.33,0.06-0.66,0.1-0.99,0.11c-0.16,0.01-0.32,0.01-0.48,0.01c-0.02,0-0.04,0-0.06,0c-0.01,0-0.02,0-0.04,0
						c-0.56,0.15-0.87,0.69-1.11,1.36c-1.27,3.65-2.55,7.31-3.84,10.95c-0.52,1.46-1,2.92-1.06,4.48c-0.1,2.72,1.33,4.54,3.98,5.1
						c0.33,0.07,0.66,0.16,0.99,0.22c0.44,0.08,0.96,0.06,1,0.68c0.04,0.64-0.46,0.91-0.94,1.13c-0.23,0.1-0.52,0.06-0.78,0.06
						c-5.66,0-11.31,0-16.97,0.01c-0.51,0-0.94-0.18-1.4-0.34c-0.61-0.22-0.57-0.71-0.61-1.2c-0.05-0.55,0.31-0.73,0.74-0.82
						c1.47-0.33,2.86-0.77,4.11-1.69c1.69-1.24,2.5-3.03,3.29-4.86c1.19-2.75,2.38-5.49,3.53-8.25c0.98-2.35,2.17-4.61,2.88-7.08
						c0.26-0.91,0.3-1.71,0.04-2.48c0,0,0,0,0-0.01c-0.02-0.02-0.04-0.04-0.06-0.06c-1.39-1.52-2.24-3.55-2.24-5.78
						c0-3.86,2.55-7.12,6.05-8.19c0.08-0.02,0.15-0.05,0.23-0.07c0.73-0.2,1.5-0.31,2.29-0.31c0.29,0,0.58,0.01,0.86,0.04
						c0.45,0.04,0.89,0.12,1.31,0.23c0.16,0.04,0.32,0.09,0.47,0.14c0.03,0.01,0.07,0.02,0.1,0.03c0.28,0.12,0.61,0.26,1.01,0.42
						c0.04,0.02,0.08,0.04,0.12,0.06c1.53,0.78,2.8,2,3.63,3.5c0.67,1.21,1.06,2.61,1.07,4.09v0.01
						C270.02,94.38,270.02,94.4,270.02,94.41z"/>
				</g>
			</g>
		</g>
		<g>
			<g>
				<path class="st1" d="M321.33,93.99v24.77h-1.06V93.99H321.33z"/>
			</g>
			<g>
				<path class="st1" d="M327.2,99.79v18.97h-1.06V99.79H327.2z M328.26,101.88v-1.2c1.49-0.81,3.26-1.24,4.92-1.24
					c3.15,0,6.16,1.59,7.33,4.74c0.21,0.57,0.42,1.17,0.42,2.48v12.1h-1.06v-12.1c0-4.03-3.5-6.16-6.69-6.16
					C331.48,100.5,329.68,100.99,328.26,101.88z"/>
			</g>
			<g>
				<path class="st1" d="M346.45,112.1c0,3.86,2.37,5.63,5.41,5.63c0.21,0,0.5,0,0.81-0.04l0.14,1.06
					c-0.32,0.04-0.67,0.04-0.96,0.04c-3.61,0-6.48-2.12-6.48-6.69v-11.25h-1.59v-1.06h1.59v-6.16h1.06V112.1z M352.04,100.85h-4.53
					v-1.06h4.53V100.85z"/>
			</g>
			<g>
				<path class="st1" d="M369.63,107.29c0-2.97-2.34-6.79-6.79-6.79c-3.01,0-7.36,2.37-7.36,8.71c0,4.21,3.57,8.63,11.01,8.63
					c0.67,0,1.42-0.07,2.16-0.14v1.06c-0.78,0.07-1.56,0.14-2.26,0.14c-7.86,0-11.96-4.78-11.96-9.7c0-7.36,5.2-9.77,8.42-9.77
					c5.02,0,7.93,3.89,7.93,8.92h-14.19c0-0.35,0.04-0.71,0.11-1.06H369.63z"/>
			</g>
			<g>
				<path class="st1" d="M375.93,99.79v18.97h-1.06V99.79H375.93z M381.91,100.5c-1.7,0-3.5,0.5-4.92,1.38v-1.2
					c1.49-0.81,3.26-1.24,4.92-1.24V100.5z"/>
			</g>
			<g>
				<path class="st1" d="M385.27,93.99h1.77v1.77h-1.77V93.99z M386.69,99.79v18.97h-1.06V99.79H386.69z"/>
			</g>
			<g>
				<path class="st1" d="M400.24,118.05v1.03c-5.17-0.28-9.31-4.56-9.31-9.8c0-5.24,4.14-9.52,9.31-9.8v1.06
					c-4.6,0.28-8.25,4.07-8.25,8.74C391.99,113.94,395.64,117.77,400.24,118.05z M401.3,119.08v-1.03c4.6-0.28,8.24-4.1,8.24-8.78
					c0-4.67-3.64-8.46-8.24-8.74v-1.06c5.17,0.28,9.31,4.56,9.31,9.8C410.61,114.51,406.47,118.79,401.3,119.08z"/>
			</g>
			<g>
				<path class="st1" d="M415.77,99.79v18.97h-1.06V99.79H415.77z M421.75,100.5c-1.7,0-3.5,0.5-4.92,1.38v-1.2
					c1.49-0.81,3.26-1.24,4.92-1.24V100.5z"/>
			</g>
		</g>
		<g>
			<g>
				<path class="st1" d="M330.39,59.47l-9.38,24.87l-1.17-0.42l9.88-26.21L330.39,59.47z M330.39,55.91l0.67-1.8l11.22,29.81
					l-1.17,0.42l-3.06-8.12h-12.64l0.46-1.26h11.68L330.39,55.91z"/>
			</g>
			<g>
				<path class="st1" d="M348.35,61.69v22.44h-1.26V61.69H348.35z M355.42,62.52c-2.01,0-4.15,0.59-5.82,1.63v-1.42
					c1.76-0.96,3.85-1.47,5.82-1.47V62.52z"/>
			</g>
			<g>
				<path class="st1" d="M373.76,84.3c-0.92,0.08-1.8,0.13-2.68,0.13c-9.46,0-14.19-5.74-14.19-11.51c0-5.78,4.73-11.56,14.19-11.56
					c0.88,0,1.76,0.04,2.68,0.13l-0.08,1.26c-0.92-0.08-1.8-0.13-2.6-0.13c-8.63,0-12.94,5.19-12.94,10.3
					c0,5.11,4.31,10.26,12.94,10.26c0.8,0,1.67-0.04,2.6-0.13L373.76,84.3z"/>
			</g>
			<g>
				<path class="st1" d="M387.7,83.29v1.21c-6.11-0.34-11.01-5.4-11.01-11.6c0-6.2,4.9-11.26,11.01-11.6v1.26
					c-5.44,0.33-9.76,4.81-9.76,10.34C377.95,78.43,382.26,82.96,387.7,83.29z M388.96,84.5v-1.21c5.44-0.33,9.76-4.86,9.76-10.38
					c0-5.53-4.31-10.01-9.76-10.34v-1.26c6.11,0.33,11.01,5.4,11.01,11.6C399.97,79.1,395.07,84.17,388.96,84.5z"/>
			</g>
			<g>
				<path class="st1" d="M406.08,61.69v22.44h-1.26V61.69H406.08z M407.33,64.16v-1.42c1.76-0.96,3.85-1.47,5.82-1.47
					c3.73,0,7.28,1.88,8.67,5.61c0.25,0.67,0.5,1.38,0.5,2.93v14.32h-1.26V69.81c0-4.77-4.14-7.29-7.91-7.29
					C411.14,62.52,409.01,63.11,407.33,64.16z"/>
			</g>
		</g>
	</g>
	<g>
		<path class="st1" d="M237.18,135.7v9.44h-1.23v-9.44H237.18z"/>
		<path class="st1" d="M245.09,138.4c0.56,0.55,0.84,1.33,0.84,2.36v4.37h-1.22v-4.2c0-0.74-0.19-1.31-0.56-1.7
			c-0.37-0.39-0.88-0.59-1.52-0.59c-0.65,0-1.17,0.2-1.55,0.61c-0.38,0.41-0.58,1-0.58,1.77v4.1h-1.23v-7.42h1.23v1.06
			c0.24-0.38,0.58-0.67,1-0.88c0.42-0.21,0.88-0.31,1.39-0.31C243.8,137.58,244.53,137.86,245.09,138.4z"/>
		<path class="st1" d="M249.45,138.74v4.38c0,0.36,0.08,0.62,0.23,0.77c0.15,0.15,0.42,0.22,0.8,0.22h0.91v1.04h-1.11
			c-0.69,0-1.2-0.16-1.54-0.47c-0.34-0.32-0.51-0.84-0.51-1.56v-4.38h-0.96v-1.02h0.96v-1.87h1.23v1.87h1.94v1.02H249.45z"/>
		<path class="st1" d="M259.61,141.89h-5.93c0.05,0.73,0.3,1.3,0.75,1.71c0.46,0.41,1.01,0.62,1.66,0.62c0.53,0,0.98-0.12,1.33-0.37
			c0.36-0.25,0.61-0.58,0.75-1h1.33c-0.2,0.71-0.6,1.29-1.19,1.74c-0.6,0.45-1.34,0.67-2.22,0.67c-0.7,0-1.33-0.16-1.89-0.47
			c-0.56-0.32-0.99-0.77-1.31-1.35s-0.47-1.26-0.47-2.02c0-0.77,0.15-1.44,0.46-2.02c0.31-0.58,0.74-1.02,1.29-1.33
			c0.56-0.31,1.19-0.47,1.92-0.47c0.7,0,1.33,0.15,1.87,0.46c0.54,0.31,0.96,0.73,1.25,1.27c0.29,0.54,0.44,1.14,0.44,1.82
			C259.65,141.38,259.64,141.63,259.61,141.89z M258.07,139.68c-0.21-0.34-0.49-0.6-0.85-0.77c-0.36-0.18-0.75-0.26-1.19-0.26
			c-0.62,0-1.15,0.2-1.59,0.6c-0.44,0.4-0.69,0.95-0.75,1.65h4.69C258.38,140.42,258.28,140.02,258.07,139.68z"/>
		<path class="st1" d="M263.44,137.94c0.4-0.23,0.89-0.35,1.47-0.35v1.27h-0.33c-1.38,0-2.07,0.75-2.07,2.25v4.04h-1.23v-7.42h1.23
			v1.21C262.73,138.5,263.04,138.17,263.44,137.94z"/>
		<path class="st1" d="M266.37,136.27c-0.16-0.16-0.24-0.36-0.24-0.6c0-0.23,0.08-0.43,0.24-0.6s0.36-0.24,0.6-0.24
			c0.23,0,0.42,0.08,0.58,0.24c0.16,0.16,0.24,0.36,0.24,0.6c0,0.24-0.08,0.43-0.24,0.6c-0.16,0.16-0.35,0.24-0.58,0.24
			C266.73,136.51,266.53,136.43,266.37,136.27z M267.56,137.72v7.42h-1.23v-7.42H267.56z"/>
		<path class="st1" d="M271.01,144.79c-0.56-0.32-1.01-0.77-1.33-1.35c-0.32-0.58-0.48-1.26-0.48-2.02c0-0.76,0.16-1.43,0.49-2.01
			c0.33-0.58,0.78-1.03,1.35-1.34c0.57-0.31,1.21-0.47,1.91-0.47c0.7,0,1.34,0.16,1.91,0.47c0.57,0.31,1.02,0.76,1.35,1.33
			s0.49,1.25,0.49,2.02c0,0.77-0.17,1.44-0.51,2.02c-0.34,0.58-0.8,1.03-1.37,1.35c-0.58,0.32-1.22,0.47-1.92,0.47
			C272.2,145.26,271.57,145.11,271.01,144.79z M274.15,143.87c0.39-0.21,0.7-0.52,0.94-0.93c0.24-0.41,0.36-0.92,0.36-1.52
			c0-0.6-0.12-1.1-0.35-1.52c-0.23-0.41-0.54-0.72-0.92-0.93c-0.38-0.2-0.79-0.3-1.23-0.3c-0.45,0-0.87,0.1-1.24,0.3
			c-0.38,0.2-0.67,0.51-0.9,0.93c-0.23,0.42-0.34,0.92-0.34,1.52c0,0.6,0.11,1.11,0.33,1.53c0.22,0.41,0.52,0.72,0.89,0.93
			c0.37,0.2,0.78,0.3,1.22,0.3C273.34,144.18,273.76,144.08,274.15,143.87z"/>
		<path class="st1" d="M280.49,137.94c0.4-0.23,0.89-0.35,1.47-0.35v1.27h-0.33c-1.38,0-2.07,0.75-2.07,2.25v4.04h-1.23v-7.42h1.23
			v1.21C279.78,138.5,280.09,138.17,280.49,137.94z"/>
		<path class="st1" d="M294.25,145.14l-1.23-1.25c-0.46,0.48-0.95,0.83-1.48,1.06c-0.52,0.23-1.11,0.35-1.77,0.35
			c-0.65,0-1.23-0.12-1.73-0.35c-0.5-0.23-0.89-0.57-1.16-1c-0.28-0.43-0.41-0.94-0.41-1.52c0-0.66,0.19-1.24,0.56-1.74
			c0.38-0.5,0.93-0.9,1.66-1.19c-0.29-0.34-0.5-0.66-0.62-0.95c-0.13-0.29-0.19-0.6-0.19-0.95c0-0.4,0.1-0.76,0.3-1.08
			c0.2-0.32,0.49-0.57,0.87-0.75c0.38-0.18,0.82-0.27,1.31-0.27c0.49,0,0.91,0.09,1.27,0.28c0.36,0.19,0.63,0.45,0.81,0.79
			c0.18,0.34,0.26,0.72,0.24,1.13h-1.23c0.01-0.37-0.09-0.66-0.31-0.87c-0.22-0.21-0.5-0.32-0.84-0.32c-0.36,0-0.65,0.1-0.87,0.3
			c-0.22,0.2-0.33,0.46-0.33,0.78c0,0.27,0.07,0.53,0.22,0.79c0.15,0.25,0.4,0.56,0.75,0.93l2.82,2.83l0.24-0.38l0.92-1.54h1.33
			l-1.11,1.92c-0.15,0.27-0.33,0.56-0.54,0.85l2.13,2.13H294.25z M291.08,143.96c0.39-0.19,0.77-0.48,1.12-0.88l-2.78-2.79
			c-1.16,0.44-1.73,1.14-1.73,2.1c0,0.53,0.19,0.98,0.58,1.33c0.38,0.35,0.88,0.53,1.5,0.53
			C290.25,144.25,290.69,144.15,291.08,143.96z"/>
		<path class="st1" d="M301.86,136.7v3.16h3.44v1.02h-3.44v3.25h3.85v1.02h-5.08v-9.45h5.08v1.02H301.86z"/>
		<path class="st1" d="M311.45,145.14l-1.76-2.76l-1.69,2.76h-1.29l2.4-3.68l-2.4-3.74h1.4l1.76,2.75l1.68-2.75h1.29l-2.38,3.67
			l2.4,3.75H311.45z"/>
		<path class="st1" d="M315.57,138.74v4.38c0,0.36,0.08,0.62,0.23,0.77c0.15,0.15,0.42,0.22,0.8,0.22h0.91v1.04h-1.11
			c-0.69,0-1.2-0.16-1.54-0.47c-0.34-0.32-0.51-0.84-0.51-1.56v-4.38h-0.96v-1.02h0.96v-1.87h1.23v1.87h1.94v1.02H315.57z"/>
		<path class="st1" d="M325.72,141.89h-5.93c0.05,0.73,0.3,1.3,0.75,1.71c0.46,0.41,1.01,0.62,1.66,0.62c0.53,0,0.98-0.12,1.33-0.37
			c0.36-0.25,0.61-0.58,0.75-1h1.33c-0.2,0.71-0.6,1.29-1.19,1.74c-0.6,0.45-1.34,0.67-2.22,0.67c-0.7,0-1.33-0.16-1.89-0.47
			s-0.99-0.77-1.31-1.35s-0.47-1.26-0.47-2.02c0-0.77,0.15-1.44,0.46-2.02c0.31-0.58,0.74-1.02,1.29-1.33
			c0.56-0.31,1.19-0.47,1.92-0.47c0.7,0,1.33,0.15,1.87,0.46c0.54,0.31,0.96,0.73,1.25,1.27c0.29,0.54,0.44,1.14,0.44,1.82
			C325.76,141.38,325.75,141.63,325.72,141.89z M324.18,139.68c-0.21-0.34-0.49-0.6-0.85-0.77c-0.36-0.18-0.75-0.26-1.19-0.26
			c-0.62,0-1.15,0.2-1.59,0.6c-0.44,0.4-0.69,0.95-0.75,1.65h4.69C324.49,140.42,324.39,140.02,324.18,139.68z"/>
		<path class="st1" d="M329.55,137.94c0.4-0.23,0.89-0.35,1.47-0.35v1.27h-0.33c-1.38,0-2.07,0.75-2.07,2.25v4.04h-1.23v-7.42h1.23
			v1.21C328.84,138.5,329.15,138.17,329.55,137.94z"/>
		<path class="st1" d="M332.48,136.27c-0.16-0.16-0.24-0.36-0.24-0.6c0-0.23,0.08-0.43,0.24-0.6s0.36-0.24,0.6-0.24
			c0.23,0,0.42,0.08,0.58,0.24s0.24,0.36,0.24,0.6c0,0.24-0.08,0.43-0.24,0.6s-0.35,0.24-0.58,0.24
			C332.84,136.51,332.65,136.43,332.48,136.27z M333.67,137.72v7.42h-1.23v-7.42H333.67z"/>
		<path class="st1" d="M337.12,144.79c-0.56-0.32-1.01-0.77-1.33-1.35c-0.32-0.58-0.48-1.26-0.48-2.02c0-0.76,0.16-1.43,0.49-2.01
			c0.33-0.58,0.78-1.03,1.35-1.34c0.57-0.31,1.21-0.47,1.91-0.47c0.7,0,1.34,0.16,1.91,0.47c0.57,0.31,1.02,0.76,1.35,1.33
			s0.49,1.25,0.49,2.02c0,0.77-0.17,1.44-0.51,2.02c-0.34,0.58-0.8,1.03-1.37,1.35c-0.58,0.32-1.22,0.47-1.92,0.47
			C338.32,145.26,337.69,145.11,337.12,144.79z M340.26,143.87c0.39-0.21,0.7-0.52,0.94-0.93c0.24-0.41,0.36-0.92,0.36-1.52
			c0-0.6-0.12-1.1-0.35-1.52c-0.23-0.41-0.54-0.72-0.92-0.93c-0.38-0.2-0.79-0.3-1.23-0.3c-0.45,0-0.87,0.1-1.24,0.3
			c-0.38,0.2-0.67,0.51-0.9,0.93c-0.23,0.42-0.34,0.92-0.34,1.52c0,0.6,0.11,1.11,0.33,1.53c0.22,0.41,0.52,0.72,0.89,0.93
			c0.37,0.2,0.78,0.3,1.22,0.3C339.45,144.18,339.87,144.08,340.26,143.87z"/>
		<path class="st1" d="M346.6,137.94c0.4-0.23,0.89-0.35,1.47-0.35v1.27h-0.33c-1.38,0-2.07,0.75-2.07,2.25v4.04h-1.23v-7.42h1.23
			v1.21C345.89,138.5,346.2,138.17,346.6,137.94z"/>
		<path class="st1" d="M353.27,137.93c0.42-0.74,0.98-1.31,1.7-1.73c0.72-0.42,1.51-0.62,2.39-0.62c1.03,0,1.93,0.25,2.7,0.74
			c0.77,0.5,1.33,1.2,1.68,2.11h-1.48c-0.26-0.57-0.64-1.01-1.13-1.31c-0.49-0.31-1.08-0.46-1.77-0.46c-0.66,0-1.25,0.15-1.77,0.46
			c-0.52,0.31-0.93,0.74-1.23,1.31s-0.45,1.23-0.45,1.98c0,0.75,0.15,1.41,0.45,1.97c0.3,0.56,0.71,1,1.23,1.31
			c0.52,0.31,1.11,0.46,1.77,0.46c0.69,0,1.28-0.15,1.77-0.45c0.49-0.3,0.87-0.74,1.13-1.31h1.48c-0.35,0.9-0.91,1.6-1.68,2.09
			c-0.77,0.49-1.67,0.74-2.7,0.74c-0.88,0-1.67-0.21-2.39-0.62c-0.72-0.41-1.28-0.98-1.7-1.71c-0.42-0.73-0.62-1.56-0.62-2.48
			C352.65,139.49,352.86,138.67,353.27,137.93z"/>
		<path class="st1" d="M364.91,144.79c-0.56-0.32-1.01-0.77-1.33-1.35c-0.32-0.58-0.48-1.26-0.48-2.02c0-0.76,0.16-1.43,0.49-2.01
			c0.33-0.58,0.78-1.03,1.35-1.34c0.57-0.31,1.21-0.47,1.91-0.47c0.7,0,1.34,0.16,1.91,0.47c0.57,0.31,1.02,0.76,1.35,1.33
			s0.49,1.25,0.49,2.02c0,0.77-0.17,1.44-0.51,2.02c-0.34,0.58-0.8,1.03-1.37,1.35c-0.58,0.32-1.22,0.47-1.92,0.47
			C366.11,145.26,365.48,145.11,364.91,144.79z M368.05,143.87c0.39-0.21,0.7-0.52,0.94-0.93c0.24-0.41,0.36-0.92,0.36-1.52
			c0-0.6-0.12-1.1-0.35-1.52c-0.23-0.41-0.54-0.72-0.92-0.93c-0.38-0.2-0.79-0.3-1.23-0.3c-0.45,0-0.87,0.1-1.24,0.3
			c-0.38,0.2-0.67,0.51-0.9,0.93c-0.23,0.42-0.34,0.92-0.34,1.52c0,0.6,0.11,1.11,0.33,1.53c0.22,0.41,0.52,0.72,0.89,0.93
			c0.37,0.2,0.78,0.3,1.22,0.3C367.25,144.18,367.66,144.08,368.05,143.87z"/>
		<path class="st1" d="M378.05,138.4c0.56,0.55,0.84,1.33,0.84,2.36v4.37h-1.22v-4.2c0-0.74-0.19-1.31-0.56-1.7
			c-0.37-0.39-0.88-0.59-1.52-0.59c-0.65,0-1.17,0.2-1.55,0.61c-0.38,0.41-0.58,1-0.58,1.77v4.1h-1.23v-7.42h1.23v1.06
			c0.24-0.38,0.58-0.67,1-0.88s0.88-0.31,1.39-0.31C376.76,137.58,377.49,137.86,378.05,138.4z"/>
		<path class="st1" d="M382,144.97c-0.45-0.19-0.81-0.47-1.07-0.81c-0.26-0.35-0.41-0.75-0.43-1.2h1.27
			c0.04,0.37,0.21,0.67,0.52,0.91c0.31,0.23,0.72,0.35,1.23,0.35c0.47,0,0.84-0.1,1.11-0.31c0.27-0.21,0.41-0.47,0.41-0.79
			c0-0.33-0.14-0.57-0.43-0.72c-0.29-0.16-0.74-0.31-1.34-0.47c-0.55-0.14-1-0.29-1.35-0.44c-0.35-0.15-0.65-0.37-0.89-0.66
			c-0.25-0.29-0.37-0.68-0.37-1.16c0-0.38,0.11-0.73,0.34-1.04c0.23-0.32,0.55-0.57,0.96-0.75c0.42-0.19,0.89-0.28,1.42-0.28
			c0.82,0,1.48,0.21,1.99,0.62c0.51,0.42,0.78,0.98,0.81,1.71h-1.23c-0.03-0.39-0.18-0.7-0.47-0.93c-0.28-0.24-0.67-0.35-1.14-0.35
			c-0.44,0-0.79,0.09-1.06,0.28c-0.26,0.19-0.39,0.44-0.39,0.74c0,0.24,0.08,0.45,0.24,0.6c0.16,0.16,0.36,0.28,0.6,0.38
			c0.24,0.09,0.57,0.2,1,0.32c0.53,0.14,0.97,0.29,1.3,0.43c0.33,0.14,0.62,0.35,0.86,0.63c0.24,0.28,0.36,0.65,0.37,1.1
			c0,0.41-0.11,0.77-0.34,1.1c-0.23,0.33-0.54,0.58-0.95,0.77c-0.41,0.19-0.88,0.28-1.42,0.28
			C382.96,145.26,382.45,145.17,382,144.97z"/>
		<path class="st1" d="M394.56,137.72v7.42h-1.23v-1.1c-0.23,0.38-0.56,0.68-0.98,0.89c-0.42,0.21-0.88,0.32-1.39,0.32
			c-0.58,0-1.1-0.12-1.56-0.36s-0.82-0.6-1.09-1.08c-0.27-0.48-0.4-1.06-0.4-1.75v-4.35h1.22v4.19c0,0.73,0.18,1.29,0.56,1.69
			c0.37,0.39,0.88,0.59,1.52,0.59c0.66,0,1.18-0.2,1.56-0.61c0.38-0.41,0.57-1,0.57-1.77v-4.08H394.56z"/>
		<path class="st1" d="M397.88,135.12v10.02h-1.23v-10.02H397.88z"/>
		<path class="st1" d="M401.48,138.74v4.38c0,0.36,0.08,0.62,0.23,0.77c0.15,0.15,0.42,0.22,0.8,0.22h0.91v1.04h-1.11
			c-0.69,0-1.2-0.16-1.54-0.47c-0.34-0.32-0.51-0.84-0.51-1.56v-4.38h-0.96v-1.02h0.96v-1.87h1.23v1.87h1.94v1.02H401.48z"/>
		<path class="st1" d="M404.9,139.41c0.31-0.57,0.73-1.02,1.27-1.33c0.54-0.32,1.14-0.47,1.79-0.47c0.65,0,1.21,0.14,1.69,0.42
			c0.48,0.28,0.83,0.63,1.07,1.06v-1.35h1.25v7.42h-1.25v-1.38c-0.24,0.43-0.61,0.79-1.09,1.08c-0.48,0.28-1.05,0.43-1.69,0.43
			c-0.66,0-1.26-0.16-1.79-0.49c-0.53-0.33-0.95-0.78-1.26-1.37c-0.31-0.59-0.46-1.26-0.46-2
			C404.44,140.65,404.6,139.98,404.9,139.41z M410.39,139.95c-0.23-0.41-0.53-0.73-0.91-0.95c-0.38-0.22-0.81-0.33-1.27-0.33
			c-0.46,0-0.88,0.11-1.26,0.33c-0.38,0.22-0.68,0.53-0.91,0.95c-0.23,0.42-0.34,0.9-0.34,1.46c0,0.57,0.11,1.06,0.34,1.48
			c0.23,0.42,0.53,0.74,0.91,0.96c0.38,0.22,0.8,0.33,1.26,0.33c0.46,0,0.88-0.11,1.27-0.33c0.38-0.22,0.69-0.54,0.91-0.96
			c0.23-0.42,0.34-0.91,0.34-1.47C410.73,140.86,410.62,140.37,410.39,139.95z"/>
		<path class="st1" d="M419.87,138.4c0.56,0.55,0.84,1.33,0.84,2.36v4.37h-1.22v-4.2c0-0.74-0.19-1.31-0.56-1.7
			c-0.37-0.39-0.88-0.59-1.52-0.59c-0.65,0-1.17,0.2-1.55,0.61c-0.38,0.41-0.58,1-0.58,1.77v4.1h-1.23v-7.42h1.23v1.06
			c0.24-0.38,0.58-0.67,1-0.88c0.42-0.21,0.88-0.31,1.39-0.31C418.58,137.58,419.31,137.86,419.87,138.4z"/>
		<path class="st1" d="M424.23,138.74v4.38c0,0.36,0.08,0.62,0.23,0.77c0.15,0.15,0.42,0.22,0.8,0.22h0.91v1.04h-1.11
			c-0.69,0-1.2-0.16-1.54-0.47c-0.34-0.32-0.51-0.84-0.51-1.56v-4.38h-0.96v-1.02H423v-1.87h1.23v1.87h1.94v1.02H424.23z"/>
	</g>
</g>
</svg>
